<svg width="74" height="50" viewBox="0 0 74 50" fill="none" xmlns="http://www.w3.org/2000/svg">
<g clip-path="url(#clip0_22_64)">
<path d="M36.6597 42.9044C36.6597 40.9309 38.2435 39.3471 40.2171 39.3471C42.1906 39.3471 43.7737 40.9309 43.7737 42.9044C43.7737 44.8779 42.1906 46.4618 40.2171 46.4618C38.2435 46.4618 36.6597 44.8779 36.6597 42.9044V42.9044ZM51.1318 42.9044C51.1318 40.9309 52.7156 39.3471 54.6891 39.3471C56.6619 39.3471 58.2457 40.9309 58.2457 42.9044C58.2457 44.8779 56.6619 46.4618 54.6891 46.4618C52.7156 46.4618 51.1318 44.8779 51.1318 42.9044ZM17.5832 42.9044C17.5832 40.9309 19.1663 39.3471 21.1406 39.3471C23.1134 39.3471 24.6972 40.9309 24.6972 42.9044C24.6972 44.8779 23.1134 46.4618 21.1406 46.4618C19.1663 46.4618 17.5832 44.8779 17.5832 42.9044V42.9044ZM3.11117 42.9044C3.11117 40.9309 4.69426 39.3471 6.66778 39.3471C8.64205 39.3471 10.2251 40.9309 10.2251 42.9044C10.2251 44.8779 8.64205 46.4618 6.66778 46.4618C4.69426 46.4618 3.11117 44.8779 3.11117 42.9044ZM32.3715 36.6184H29.2773V49.0684H32.3715V36.6184ZM10.2009 49.0684H13.295V36.6184H10.2009V37.6176C9.15308 36.8868 7.88617 36.4728 6.5222 36.4728C2.96484 36.4728 0.0898438 39.3471 0.0898438 42.9044C0.0898438 46.486 2.96484 49.336 6.5222 49.336C7.88617 49.336 9.15308 48.9221 10.2009 48.1912V49.0684ZM58.2215 49.0684H61.3156V36.6184H58.2215V37.6176C57.1737 36.8868 55.9068 36.4728 54.5428 36.4728C50.9854 36.4728 48.1112 39.3471 48.1112 42.9044C48.1112 46.486 50.9854 49.336 54.5428 49.336C55.9068 49.336 57.1737 48.9221 58.2215 48.1912V49.0684ZM62.4612 45.0235C62.5582 47.5331 64.7023 49.3118 68.284 49.3118C71.2075 49.3118 73.6193 48.0449 73.6193 45.2434C73.6193 43.2941 72.5229 42.1493 69.9891 41.6618L68.0156 41.2721C66.7487 41.0287 65.8715 40.7846 65.8715 40.0294C65.8715 39.2015 66.7244 38.836 67.7965 38.836C69.356 38.836 69.9891 39.6154 70.0376 40.5412H73.1568C72.9862 38.1044 71.0369 36.4728 67.8943 36.4728C64.6538 36.4728 62.7288 38.2507 62.7288 40.5654C62.7288 43.3919 65.0193 43.8544 66.9928 44.2199L68.6251 44.5125C69.7943 44.7316 70.306 45.0728 70.306 45.7551C70.306 46.364 69.7215 46.9728 68.3325 46.9728C66.3104 46.9728 65.6523 45.9257 65.6281 45.0235H62.4612ZM24.6729 32.3794V37.6176C23.6251 36.8868 22.3582 36.4728 20.9943 36.4728C17.4369 36.4728 14.5619 39.3471 14.5619 42.9044C14.5619 46.486 17.4369 49.336 20.9943 49.336C22.3582 49.336 23.6251 48.9221 24.6729 48.1912V49.0684H27.767V32.3794H24.6729ZM43.7494 32.3794V37.6176C42.7016 36.8868 41.4347 36.4728 40.0707 36.4728C36.5134 36.4728 33.6391 39.3471 33.6391 42.9044C33.6391 46.486 36.5134 49.336 40.0707 49.336C41.4347 49.336 42.7016 48.9221 43.7494 48.1912V49.0684H46.8435V32.3794H43.7494ZM8.12955 28.7007L10.2251 32.3794H24.6729L18.9472 22.4875L8.12955 28.7007ZM32.3715 35.4735V32.3794H43.7494L31.6163 11.3779L20.7744 17.5904L29.2773 32.3794V35.4735H32.3715ZM48.3545 32.3794H62.8266L44.1148 0L33.2979 6.23676L48.3545 32.3794Z" fill="black"/>
</g>
<defs>
<clipPath id="clip0_22_64">
<rect width="73.5294" height="50" fill="white" transform="translate(0.0898438)"/>
</clipPath>
</defs>
</svg>
