<svg width="145" height="50" viewBox="0 0 145 50" fill="none" xmlns="http://www.w3.org/2000/svg">
<g clip-path="url(#clip0_22_49)">
<path fill-rule="evenodd" clip-rule="evenodd" d="M119.411 0.000128533C113.719 -0.00902623 108.2 1.95775 103.797 5.56471C99.3636 1.95739 93.8206 -0.0082679 88.1051 0.000128533C82.4113 -0.0222997 76.8887 1.94606 72.4926 5.56471C68.2031 2.09596 62.7822 0.000128533 56.876 0.000128533C51.1845 -0.00854358 45.6664 1.9582 41.2635 5.56471C36.976 2.09596 31.5551 0.000128533 25.6468 0.000128533C11.8968 0.000128533 0.813477 11.048 0.813477 24.7585C0.813477 38.4668 11.8968 49.5168 25.6489 49.5168C31.5551 49.5168 37.0551 47.4189 41.2635 43.9522C45.551 47.4189 50.9718 49.5147 56.876 49.5147C62.7822 49.5147 68.2822 47.4189 72.4906 43.9522C76.9246 47.5592 82.4684 49.5242 88.1843 49.5147C94.1718 49.5147 99.5906 47.4189 103.878 43.9522C108.166 47.4189 113.586 49.5147 119.493 49.5147C133.245 49.5147 144.328 38.4689 144.328 24.7585C144.247 11.1293 133.163 0.000128533 119.411 0.000128533ZM103.797 35.8876C101.472 32.6434 100.227 28.7497 100.238 24.7585C100.238 20.646 101.532 16.7751 103.797 13.6293C106.122 16.8733 107.368 20.767 107.357 24.7585C107.357 28.9522 105.982 32.7418 103.797 35.8876ZM72.4906 35.8876C70.1649 32.6436 68.9193 28.7499 68.9301 24.7585C68.9301 20.646 70.2239 16.7751 72.4906 13.6293C74.8154 16.8736 76.0603 20.7672 76.0489 24.7585C76.0489 28.9522 74.6739 32.7418 72.4906 35.8876ZM41.1822 35.8876C38.8566 32.6436 37.611 28.7499 37.6218 24.7585C37.6218 20.646 38.9176 16.7751 41.1822 13.6293C43.5071 16.8736 44.752 20.7672 44.7406 24.7585C44.7406 28.9522 43.3656 32.7418 41.1822 35.8876ZM6.23431 24.7585C6.23431 14.1939 14.8093 5.56471 25.4885 5.56471C29.7272 5.55185 33.8511 6.94138 37.2176 9.51679C33.901 13.7105 31.9593 18.9522 31.9593 24.7585C31.9593 30.4835 33.901 35.8064 37.2176 40.0001C33.9822 42.5001 29.9364 43.9522 25.4885 43.9522C14.8906 43.9522 6.23431 35.4043 6.23431 24.7585V24.7585ZM45.0635 40.0001C48.3801 35.8064 50.3218 30.5647 50.3218 24.7585C50.3218 19.0314 48.3801 13.7105 45.0635 9.51679C48.2989 7.01679 52.3447 5.56471 56.7926 5.56471C61.2426 5.56471 65.2885 7.01679 68.5218 9.51679C65.2072 13.7105 63.2656 18.9522 63.2656 24.7585C63.2656 30.4835 65.2072 35.8064 68.5239 40.0001C65.2885 42.5001 61.2426 43.9522 56.7947 43.9522C52.3447 43.9522 48.2989 42.5001 45.0635 40.0001ZM76.3718 40.0001C79.6885 35.8064 81.6301 30.5647 81.6301 24.7585C81.6301 19.0314 79.6885 13.7105 76.3718 9.51679C79.6072 7.01679 83.651 5.56471 88.101 5.56471C92.3397 5.55185 96.4636 6.94138 99.8301 9.51679C96.5156 13.7105 94.5739 18.9522 94.5739 24.7585C94.5739 30.4835 96.5156 35.8064 99.8322 40.0001C96.5947 42.5001 92.551 43.9522 88.1031 43.9522C83.8637 43.9655 79.739 42.576 76.3718 40.0001V40.0001ZM119.409 43.9522C115.171 43.9651 111.047 42.5755 107.68 40.0001C110.995 35.8064 112.936 30.5647 112.936 24.7585C112.936 19.0314 110.995 13.7105 107.678 9.51679C110.916 7.01679 114.959 5.56471 119.407 5.56471C130.007 5.56471 138.663 14.1126 138.663 24.7585C138.663 35.4043 130.007 43.9522 119.409 43.9522V43.9522Z" fill="black"/>
</g>
<defs>
<clipPath id="clip0_22_49">
<rect width="143.75" height="50" fill="white" transform="translate(0.813477)"/>
</clipPath>
</defs>
</svg>
