<svg width="78" height="50" viewBox="0 0 78 50" fill="none" xmlns="http://www.w3.org/2000/svg">
<g clip-path="url(#clip0_22_251)">
<path d="M39.0351 35.125C37.5624 34.3926 36.1448 33.5542 34.7936 32.6165C42.3885 33.8061 53.761 34.9692 72.0922 32.0201C73.0586 33.6942 73.7615 35.5069 74.1765 37.3948C74.0241 37.5042 73.8982 37.6069 73.7259 37.7262C71.4063 39.2903 67.4597 41.1559 61.7072 41.1559C59.1356 41.1377 56.576 40.8038 54.0858 40.1618C53.0917 39.9066 52.1572 39.6548 51.2393 39.3797C48.1775 38.4784 45.4735 37.4777 42.859 36.5101C41.6098 36.0462 40.3473 35.5823 39.0417 35.125H39.0351ZM20.8165 39.0682C19.2838 39.2779 17.7662 39.5868 16.2734 39.9928C12.559 40.9738 8.91556 42.206 5.36815 43.6809L4.07582 44.2409L2.89284 40.735L0 41.7523C0 41.7523 3.64504 46.0999 4.28789 47.5314L5.1859 49.9967C5.1859 49.9967 16.7606 43.6279 33.594 44.5888C36.0287 44.7505 38.4363 45.1953 40.7681 45.9143C40.7681 45.9143 33.9088 41.4408 32.5336 41.0067C28.6779 40.0639 24.7567 39.4126 20.8032 39.0583L20.8165 39.0682ZM77.0263 36.6261C76.2589 37.4493 75.393 38.175 74.4483 38.7866C71.0584 41.0863 64.2554 44.0387 53.7577 41.3978C52.7636 41.136 51.796 40.8808 50.8715 40.6025C41.2983 37.7892 35.6054 34.1574 22.7616 32.5801C14.0599 32.7921 5.80224 33.6537 1.1399 35.2973C1.74283 35.9055 2.31356 36.5448 2.84976 37.2126C3.26228 38.0395 3.62199 38.8917 3.9267 39.7641C4.40056 41.1559 4.84127 42.4846 4.84127 42.4846C8.44721 40.9828 12.1517 39.7295 15.9288 38.7336C18.9111 37.935 22.1221 37.4081 25.058 37.5738C34.8598 38.1901 42.7629 43.2567 51.5276 47.3756C57.6115 49.0755 72.4435 50.3579 76.6254 48.4791C76.6254 48.4791 77.4736 44.4596 77.0263 36.6194V36.6261ZM26.072 14.3582C26.7428 14.3652 27.4104 14.4531 28.0602 14.62L27.8647 15.6605C27.1025 19.6899 23.3017 26.1515 21.0518 26.1515C20.2035 26.1515 19.7992 25.4325 19.7992 23.832C19.7992 19.9285 22.1188 14.3681 26.072 14.3681V14.3582ZM36.6757 0.0464353C33.5086 -0.049315 30.3386 0.0746929 27.1887 0.417567L26.3768 4.39397C27.5719 4.47324 28.762 4.61481 29.9423 4.81812V4.85789L29.0079 9.71904C28.4068 9.61594 27.7985 9.56053 27.1887 9.55336C17.8938 9.55005 13.7451 16.8633 13.7451 24.8526C13.7451 29.3923 15.4285 31.5528 18.7852 31.5561C22.0624 31.5561 24.6471 28.6269 26.4663 25.5915H26.5558C25.8756 27.3637 25.3523 29.1921 24.9917 31.0558H30.7708L36.6757 0.0464353ZM67.9667 16.469C68.7322 12.5224 67.8971 9.55336 63.7782 9.55005C60.0504 9.55005 57.6811 12.138 55.7326 15.6605L55.6896 15.6207C55.8733 14.9994 55.9845 14.3589 56.0209 13.712C56.0209 10.8689 54.3939 9.55336 51.8888 9.55005C48.1543 9.55005 46.1164 12.0651 44.2044 15.3291H44.1182C44.8031 13.566 45.3417 11.7495 45.7287 9.89798C42.6849 9.78725 39.6372 9.91244 36.6128 10.2724L35.8042 14.2488C37.0002 14.3298 38.1914 14.4713 39.373 14.673V14.7989L36.2715 31.0525H42.0041L43.1076 25.2635C44.0486 20.2598 47.4816 15.1634 49.4367 15.1634C50.4109 15.1634 50.7025 15.9653 50.2817 18.0894L48.1344 31.0492H53.8737L54.7883 25.3894C55.5968 20.3294 59.1258 15.1634 61.0842 15.1634C62.0518 15.1634 62.3567 15.9653 61.9292 18.0894L59.8449 31.0492H65.5908L67.9667 16.469Z" fill="black"/>
</g>
<defs>
<clipPath id="clip0_22_251">
<rect width="77.1555" height="50" fill="white"/>
</clipPath>
</defs>
</svg>
