<svg fill="none" height="62" viewBox="0 0 63 62" width="63" xmlns="http://www.w3.org/2000/svg" xmlns:xlink="http://www.w3.org/1999/xlink"><clipPath id="a"><path d="m.155273 0h62v62h-62z"/></clipPath><g clip-path="url(#a)" clip-rule="evenodd" fill="#000" fill-rule="evenodd"><path d="m31.6429 23.552c-.653-.33-1.196-.633-1.548-.886 2.773.422 6.923.834 13.615-.212 0 0 .487.75.761 1.906-.055.04-.102.076-.164.117-.843.555-2.287 1.216-4.388 1.216-.885 0-1.823-.119-2.784-.354-.36-.09-.704-.18-1.039-.278-1.118-.32-2.105-.674-3.06-1.018-.4629-.1676-.9272-.3309-1.393-.49zm-6.655 1.399c-.559.0744-1.1128.1839-1.658.328-2.262.584-3.964 1.3-3.981 1.307l-.472.2-.426-1.24-1.057.362s1.332 1.541 1.566 2.049l.327.875s4.225-2.26 10.37-1.919c1.395.077 2.619.47 2.619.47s-2.504-1.587-3.006-1.741c-1.4086-.3346-2.8397-.5656-4.282-.691zm20.523-.863s-.31.353-.94.767c-1.238.815-3.722 1.863-7.554.925-.3527-.0872-.7038-.1809-1.053-.281-3.495-.998-5.572-2.287-10.26-2.846-3.177.075-6.192.38-7.893.964 0 0 .482.479.623.678.071.149.238.46.394.909.173.494.333.965.333.965s1.72-.73 4.047-1.33c1.092-.285 2.262-.473 3.334-.412 3.576.218 6.462 2.015 9.661 3.476 2.22.602 7.635 1.06 9.162.391 0 0 .31-1.425.146-4.206zm-18.6-7.898c.294 0 .52.048.722.092l-.072.37c-.274 1.429-1.661 3.72-2.482 3.72-.31 0-.458-.254-.458-.825 0-1.385.85-3.357 2.29-3.357zm3.866-5.08c-1.284-.045-2.384.033-3.458.135l-.296 1.404c.45.03.96.09 1.301.151v.014l-.341 1.73c-.2195-.0367-.4415-.0564-.664-.059-3.393 0-4.908 2.594-4.908 5.426 0 1.61.616 2.377 1.84 2.377 1.197 0 2.14-1.038 2.804-2.12h.033c-.295.798-.477 1.4-.57 1.938h2.108l2.15-10.995zm11.427 5.829c.28-1.4-.026-2.454-1.53-2.454-1.36 0-2.224.918-2.936 2.167l-.016-.015c.077-.301.124-.494.124-.676 0-1.009-.594-1.476-1.508-1.476-1.363 0-2.108.891-2.805 2.05l-.032-.001c.264-.663.467-1.34.59-1.926-1.1125-.0387-2.2263.0064-3.332.135l-.295 1.403c.451.03.961.091 1.302.151v.044l-1.132 5.765 2.093.002.403-2.054c.343-1.775 1.596-3.582 2.31-3.582.356 0 .462.285.308 1.038l-.783 4.596h2.095l.334-2.008c.294-1.794 1.583-3.626 2.297-3.626.353 0 .465.285.308 1.038l-.761 4.596h2.098zm-29.266 19.317v9.006c0 .583.11 1.02 1.399 1.02 1.29 0 1.4-.437 1.4-1.02v-10.597c-.12.052-1.843.785-2.181.944-.457.215-.618.464-.618.647zm5.539-3.943h-8.28c-.50901 0-.85901.107-.85901 1.176 0 1.068.35 1.175.86001 1.175h2.727v-.001h2.82l-.004.001h2.736c.509 0 .859-.107.859-1.175 0-1.069-.35-1.176-.86-1.176zm11.299 12.736c0 1.067-.35 1.175-.86 1.175h-6.697c-.79 0-1.12-.32-1.12-1.088v-11.736c0-.767.33-1.087 1.12-1.087h6.618c.51 0 .859.106.859 1.175 0 1.07-.35 1.176-.86 1.176h-4.938v3.341h4.269c.51 0 .84.127.84 1.156 0 1.031-.33 1.157-.84 1.157h-4.27v3.556h5.02c.51 0 .86.106.86 1.175zm10.431-1.468c-.46 0-1.21.486-2.42.486-2.058 0-3.308-1.398-3.308-4.73 0-3.265 1.199-4.867 3.349-4.867 1.11 0 1.819.427 2.25.427.709 0 .919-1.127.919-1.584 0-.387-.15-.64-.75-.864-.34-.126-1.14-.37-2.32-.37-3.678 0-6.348 2.343-6.348 7.461 0 4.838 2.39 6.917 5.839 6.917.94 0 2.09-.156 2.809-.437.7-.272.85-.612.85-.981 0-.409-.19-1.458-.87-1.458zm-24.47-8.916h.005z"/><path d="m23.9184 40.323-.02.01v-.01zm29.649-7.048v11.987c0 .583-.11 1.02-1.401 1.02-1.29 0-1.4-.437-1.4-1.02v-4.982h-4.399v4.983c0 .583-.109 1.02-1.398 1.02-1.29 0-1.4-.437-1.4-1.02v-11.988c0-.583.11-1.02 1.4-1.02s1.398.437 1.398 1.02v4.614h4.4v-4.614c0-.583.11-1.02 1.399-1.02 1.29 0 1.401.437 1.401 1.02z"/><path d="m.155273 0v62h62.000027v-62zm2.723997 59.276h56.55203v-56.552h-56.55203z"/></g></svg>