<svg width="126" height="50" viewBox="0 0 126 50" fill="none" xmlns="http://www.w3.org/2000/svg">
<g clip-path="url(#clip0_22_51)">
<path d="M16.7698 10.9324C7.98283 10.9324 0.660645 14.6603 0.660645 25.9071C0.660645 34.8171 5.58429 40.428 16.9967 40.428C30.4297 40.428 31.2908 31.5793 31.2908 31.5793H24.7819C24.7819 31.5793 23.3863 36.344 16.5997 36.344C11.0721 36.344 7.09649 32.61 7.09649 27.3762H31.9714V24.092C31.9714 18.9141 28.6845 10.9324 16.7698 10.9324V10.9324ZM16.5429 15.1298C21.8046 15.1298 25.3916 18.3532 25.3916 23.1844H7.24045C7.24045 18.0555 11.9225 15.1298 16.5429 15.1298V15.1298Z" fill="black"/>
<path d="M31.9669 0.041626V34.7799C31.9669 36.7517 31.8262 39.5205 31.8262 39.5205H38.0343C38.0343 39.5205 38.2571 37.5319 38.2571 35.7146C38.2571 35.7146 41.3243 40.5131 49.6643 40.5131C58.4467 40.5131 64.4122 34.4158 64.4122 25.6802C64.4122 17.5535 58.9327 11.0174 49.6785 11.0174C41.0126 11.0174 38.3198 15.697 38.3198 15.697V0.041626H31.9669ZM48.0761 15.3141C54.04 15.3141 57.8324 19.7404 57.8324 25.6802C57.8324 32.0495 53.4523 36.2164 48.1186 36.2164C41.7534 36.2164 38.3198 31.2464 38.3198 25.7369C38.3198 20.6031 41.4009 15.3141 48.0761 15.3141Z" fill="black"/>
<path d="M79.8406 10.9324C66.6213 10.9324 65.7735 18.1706 65.7735 19.3273H72.3533C72.3533 19.3273 72.6983 15.1015 79.3868 15.1015C83.7332 15.1015 87.1011 17.0909 87.1011 20.9155V22.2769H79.3868C69.1456 22.2769 63.7314 25.2728 63.7314 31.3525C63.7314 37.3357 68.734 40.5911 75.4943 40.5911C84.7075 40.5911 87.6754 35.5003 87.6754 35.5003C87.6754 37.5251 87.8315 39.5205 87.8315 39.5205H93.6809C93.6809 39.5205 93.454 37.0472 93.454 35.4648V21.7876C93.454 12.8197 86.2204 10.9324 79.8406 10.9324V10.9324ZM87.1011 26.3609V28.176C87.1011 30.5434 85.6402 36.4291 77.04 36.4291C72.3305 36.4291 70.3113 34.0787 70.3113 31.3525C70.3113 26.3928 77.1111 26.3609 87.1011 26.3609V26.3609Z" fill="black"/>
<path d="M89.9111 12.0679H97.3134L107.937 33.3509L118.536 12.0679H125.241L105.935 49.9585H98.9016L104.473 39.3959L89.9111 12.0679Z" fill="black"/>
</g>
<defs>
<clipPath id="clip0_22_51">
<rect width="124.663" height="50" fill="white" transform="translate(0.619141)"/>
</clipPath>
</defs>
</svg>
