<svg width="209" height="40" viewBox="0 0 209 40" fill="none" xmlns="http://www.w3.org/2000/svg">
<path fill-rule="evenodd" clip-rule="evenodd" d="M92.4664 20.0041C90.9688 18.4776 90.0449 16.3817 90.0449 14.0741C90.0449 9.39974 93.832 5.60894 98.5064 5.60486H113.737V10.6896H98.5064C96.6413 10.6933 95.1296 12.2065 95.1296 14.0741C95.1296 15.9413 96.6413 17.4545 98.5064 17.4585H108.624V22.5403H98.5064C96.6413 22.5444 95.1296 24.0601 95.1296 25.9248C95.1296 27.7935 96.6413 29.3067 98.5064 29.3078H113.737V34.394H98.5064C93.832 34.3899 90.0449 30.6002 90.0449 25.9248C90.0449 23.6171 90.9688 21.5317 92.4664 20.0041ZM131.512 19.114C133.369 19.1247 134.872 20.6312 134.877 22.4906V34.3951H139.961V22.4906C139.957 17.823 136.177 14.04 131.512 14.0296H117.951V34.3677H123.031V19.114H131.512ZM189.884 31.9725C188.356 33.4713 186.272 34.3951 183.964 34.3951C179.289 34.3951 175.497 30.6083 175.493 25.9341V5.61006H180.577V25.9341C180.583 27.7998 182.097 29.3119 183.964 29.3119C185.832 29.3119 187.346 27.7998 187.348 25.9341V14.0752H192.432V25.9341C192.434 27.7998 193.95 29.3119 195.816 29.3119C197.681 29.3119 199.196 27.7998 199.198 25.9341V5.61006H204.282V25.9341C204.278 30.6083 200.489 34.3951 195.816 34.3951C193.507 34.3951 191.412 33.4713 189.884 31.9725ZM150.108 10.6921V24.2313H145.028V5.60742H161.963C166.639 5.61006 170.426 9.40238 170.426 14.0752C170.426 16.3854 169.502 18.479 168.002 20.0066C169.502 21.5353 170.426 23.6185 170.426 25.9263C170.426 30.6032 166.639 34.3914 161.963 34.3951H145.028V29.3119H161.963C163.83 29.3078 165.341 27.7946 165.341 25.9263C165.341 24.0601 163.83 22.5455 161.963 22.5429H155.185V17.4597H161.963C163.83 17.4585 165.341 15.9425 165.341 14.0752C165.341 12.2094 163.83 10.6948 161.963 10.6921H150.108Z" fill="black"/>
<path fill-rule="evenodd" clip-rule="evenodd" d="M6.44991 22.164C5.25311 22.164 4.28223 21.1945 4.28223 19.9988C4.28223 18.8016 5.25311 17.8348 6.44991 17.8348H82.1485V22.1572L39.1829 22.164H6.44991Z" fill="black"/>
</svg>
