<svg width="183" height="30" viewBox="0 0 183 30" fill="none" xmlns="http://www.w3.org/2000/svg">
<g clip-path="url(#clip0_22_56)">
<path d="M35.0087 1.11421C29.7801 3.04278 28.3659 9.04278 32.3087 12.7285C32.823 13.2428 35.523 14.6999 38.2659 15.9856C41.0944 17.3142 43.5373 18.7714 43.9659 19.3285C44.823 20.5714 44.8659 23.5285 44.0087 24.6856C42.3373 27.1285 37.3659 27.7285 33.723 25.9285C32.5659 25.3714 31.1944 24.5999 30.723 24.2571C29.9087 23.6142 29.8659 23.6571 29.9944 25.7142C30.1659 27.7714 30.1659 27.8142 32.3516 28.7571C35.2659 30.0428 41.0944 30.1714 43.3659 28.9714C46.7516 27.2142 48.0801 25.1571 48.0801 21.7714C48.0801 17.7428 45.8087 15.3856 39.5087 12.8571C35.1373 11.0999 33.5087 9.64278 33.5087 7.49993C33.5087 6.34278 33.8516 5.61421 34.7516 4.67135C35.9087 3.55707 36.2944 3.4285 38.7801 3.4285C41.0516 3.4285 42.0373 3.68564 43.9659 4.67135L46.3659 5.95707V4.3285C46.3659 2.35707 45.9801 2.01421 42.9801 1.11421C40.1516 0.299926 37.2801 0.299926 35.0087 1.11421Z" fill="black"/>
<path d="M68.9085 1.15715C62.8228 3 59.0942 8.31429 59.1371 15.2143C59.1371 23.1429 63.4228 28.4143 71.0085 29.7C73.2799 30.0857 74.1371 30.0429 76.4514 29.4C80.3514 28.3286 81.0799 27.7714 81.0799 25.7143V24.0429L78.9799 25.3286C75.0799 27.7714 69.9371 27.4714 66.6371 24.6429C62.5657 21.1714 61.2799 14.8286 63.6371 9.72858C64.8799 7.02858 66.2942 5.48572 68.8228 4.2C71.3514 2.91429 76.4085 3.21429 78.8514 4.84286L80.6514 6V4.32858C80.6514 2.35715 80.3085 2.01429 77.2657 1.11429C74.3942 0.257147 71.6942 0.300004 68.9085 1.15715Z" fill="black"/>
<path d="M163.152 13.5858C159.852 20.8286 156.894 27.3001 156.637 27.9858L156.08 29.1858L157.88 29.0572L159.68 28.9286L161.823 23.8715L164.009 18.8572L169.109 18.9429L174.209 19.0715L176.394 24.0858L178.58 29.1429H180.423C181.409 29.1429 182.223 29.0572 182.223 28.9715C182.223 28.7144 170.866 3.81436 169.88 1.88579L169.152 0.471507L163.152 13.5858ZM171.98 14.0144L172.752 15.8572H169.152C167.137 15.8572 165.509 15.7715 165.509 15.6858C165.509 15.6001 166.109 14.1858 166.837 12.5572C167.566 10.9715 168.38 9.17151 168.594 8.57151C169.066 7.41436 169.109 7.50008 171.98 14.0144Z" fill="black"/>
<path d="M0.0800781 15V29.1428H8.22293H16.3658V27.7285V26.3571H10.0658H3.72294L3.59436 21.3L3.46579 16.2857H8.86579H14.2229V15V13.7571L8.99436 13.6285L3.72294 13.5L3.59436 8.65711L3.46579 3.85711H9.93722H16.3658V2.35711V0.85711H8.22293H0.0800781V15Z" fill="black"/>
<path d="M94.9226 15.0001L88.4512 29.1429H90.2512H92.0083L94.194 24.1286L96.3797 19.0715L101.48 18.9429L106.58 18.8572L108.765 23.8715L110.908 28.9286L112.88 29.0572L114.851 29.1858L111.337 21.5572C109.408 17.3572 106.494 10.9715 104.865 7.3715C103.237 3.81436 101.78 0.857219 101.651 0.857219C101.523 0.857219 98.4797 7.20008 94.9226 15.0001ZM103.408 11.8715C104.351 13.9286 105.08 15.6429 105.08 15.7286C105.08 15.8144 103.451 15.8572 101.48 15.8572H97.8797L99.6369 11.7858C100.58 9.55722 101.437 7.80008 101.565 7.92865C101.651 8.01436 102.508 9.81436 103.408 11.8715Z" fill="black"/>
<path d="M125.223 14.9999V29.2285L131.78 29.0571C139.323 28.7999 141.294 28.2857 144.294 25.6285C147.08 23.1857 148.408 20.3571 148.666 16.2857C149.008 11.4428 148.023 8.65709 144.937 5.52851C141.551 2.05709 139.194 1.28566 131.351 0.985658L125.223 0.728515V14.9999ZM137.223 4.32851C143.951 5.78566 147.508 13.7999 144.294 20.3571C142.323 24.4285 139.237 26.0999 133.023 26.4428C129.851 26.6571 128.908 26.5714 128.608 26.0999C128.223 25.4571 128.094 4.8428 128.48 4.19994C128.78 3.68566 134.651 3.77137 137.223 4.32851Z" fill="black"/>
</g>
<defs>
<clipPath id="clip0_22_56">
<rect width="182.571" height="30" fill="white" transform="translate(0.0800781)"/>
</clipPath>
</defs>
</svg>
