<svg width="109" height="40" viewBox="0 0 109 40" fill="none" xmlns="http://www.w3.org/2000/svg">
<path d="M2.61523 33.4998H3.45552V36.0207H6.67679V33.4998H7.48915V39.382H6.67679V36.693H3.45552V39.382H2.61523V33.4998Z" fill="black"/>
<path d="M20.5136 37.2532C20.5136 38.7378 19.6172 39.5221 18.0766 39.5221C16.508 39.5221 15.5557 38.8218 15.5557 37.2532V33.4998H16.3959V37.2532C16.3959 38.2896 17.0122 38.8778 18.0766 38.8778C19.113 38.8778 19.7013 38.2896 19.7013 37.2532V33.4998H20.5136V37.2532Z" fill="black"/>
<path d="M30.682 39.5501C28.8333 39.6622 27.7129 38.0936 27.7129 36.553C27.7129 34.8443 28.6933 33.3597 30.654 33.3597C31.9986 33.3597 33.0629 33.92 33.287 35.3205H32.4747C32.3067 34.4242 31.5503 34.004 30.654 34.004C29.1414 34.004 28.5252 35.2645 28.5252 36.525C28.5252 37.7574 29.3095 38.9339 30.7941 38.9059C31.5503 38.8779 32.1666 38.7378 32.4747 38.2336C32.6988 37.9255 32.6427 37.3653 32.6147 36.9451H30.654V36.2729H33.3431C33.3431 36.2729 33.3431 37.8135 33.3431 38.4857C32.6428 39.354 31.8025 39.4941 30.682 39.5501Z" fill="black"/>
<path d="M43.3992 38.8779C44.8838 38.8779 45.528 37.6174 45.528 36.4409C45.528 35.2645 44.8838 34.004 43.3992 34.004C41.8866 34.004 41.2704 35.2645 41.2704 36.4409C41.2704 37.6174 41.8866 38.8779 43.3992 38.8779ZM43.3992 33.3597C45.3599 33.3597 46.3403 34.8443 46.3403 36.4409C46.3403 38.0376 45.3599 39.5221 43.3992 39.5221C41.4384 39.5221 40.458 38.0376 40.458 36.4409C40.458 34.8443 41.4384 33.3597 43.3992 33.3597Z" fill="black"/>
<path d="M62.8386 36.0207H64.4633C65.3877 36.0207 65.7798 35.7126 65.7798 35.0964C65.7798 34.2841 65.1916 34.144 64.4633 34.144H62.8386V36.0207ZM62.8386 38.7378H64.8834C65.5837 38.7378 66.0319 38.3176 66.0319 37.6734C66.0319 36.9171 65.3877 36.693 64.6874 36.693H62.8386V38.7378ZM62.0264 33.4998H64.2392C64.7995 33.4998 65.4997 33.4998 65.8639 33.6958C66.284 33.9479 66.5921 34.3681 66.5921 34.9283C66.5921 35.5726 66.256 36.0487 65.6958 36.2728C66.452 36.4129 66.8722 36.9731 66.8722 37.7014C66.8722 38.5697 66.2 39.382 64.9955 39.382H62.0264V33.4998Z" fill="black"/>
<path d="M77.152 38.8779C78.6646 38.8779 79.2809 37.6174 79.2809 36.4409C79.2809 35.2645 78.6646 34.004 77.152 34.004C75.6675 34.004 75.0232 35.2645 75.0232 36.4409C75.0232 37.6174 75.6675 38.8779 77.152 38.8779ZM77.152 33.3597C79.1128 33.3597 80.1212 34.8443 80.1212 36.4409C80.1212 38.0376 79.1128 39.5221 77.152 39.5221C75.1913 39.5221 74.2109 38.0376 74.2109 36.4409C74.2109 34.8443 75.1913 33.3597 77.152 33.3597Z" fill="black"/>
<path d="M91.4092 35.2365C91.3251 34.3681 90.7369 34.004 89.8966 34.004C89.1963 34.004 88.524 34.2561 88.524 35.0124C88.524 35.7407 89.5044 35.8527 90.4847 36.0768C91.4652 36.2729 92.4456 36.609 92.4456 37.7855C92.4456 39.0179 91.157 39.5221 90.0366 39.5221C88.6641 39.5221 87.5156 38.8779 87.5156 37.4493H88.272C88.272 38.4297 89.1403 38.8779 90.0646 38.8779C90.8209 38.8779 91.6332 38.6538 91.6332 37.7855C91.6332 36.9731 90.6528 36.8611 89.6725 36.637C88.6921 36.4409 87.6837 36.1608 87.6837 35.0684C87.6837 33.8919 88.8042 33.3597 89.9245 33.3597C91.185 33.3597 92.1374 33.92 92.1934 35.2365H91.4092Z" fill="black"/>
<path d="M104.687 35.2365C104.575 34.3681 103.986 34.004 103.146 34.004C102.474 34.004 101.774 34.2561 101.774 35.0124C101.774 35.7407 102.754 35.8527 103.762 36.0768C104.743 36.2729 105.723 36.609 105.723 37.7855C105.723 39.0179 104.435 39.5221 103.314 39.5221C101.942 39.5221 100.765 38.8779 100.765 37.4493H101.549C101.549 38.4297 102.418 38.8779 103.342 38.8779C104.07 38.8779 104.911 38.6538 104.911 37.7855C104.911 36.9731 103.902 36.8611 102.922 36.637C101.942 36.4409 100.961 36.1608 100.961 35.0684C100.961 33.8919 102.054 33.3597 103.202 33.3597C104.435 33.3597 105.415 33.92 105.443 35.2365H104.687Z" fill="black"/>
<path d="M9.84193 2.40778V12.9959H13.6795C13.6795 12.9959 14.0155 12.9679 14.2117 12.9118C16.4525 12.7158 17.8811 10.0267 18.0211 8.06596C18.2452 5.96515 16.9567 2.49181 13.7355 2.40778C12.783 2.37976 9.84193 2.40778 9.84193 2.40778ZM9.84193 14.2283V26.9173H13.3152C13.3152 26.9173 15.2761 27.0573 17.0407 25.6288C18.7774 24.2282 19.6737 22.1554 19.4777 19.7745C19.3376 17.6457 17.713 14.6205 14.0716 14.2283C12.1389 14.2283 9.84193 14.2283 9.84193 14.2283ZM18.0211 1.17529C20.9062 1.34336 22.7829 2.88396 22.951 3.08003C24.4356 4.45257 24.8837 6.52537 24.5196 8.51414C24.0435 11.8474 19.8979 13.248 19.8979 13.248C23.3712 13.6681 25.9762 16.2731 26.3683 19.0742C26.7045 21.8193 25.6961 24.2562 23.4272 25.9649C21.1303 27.6735 17.769 28.2338 15.9483 28.2338C15.9483 28.2338 1.88683 28.2338 1.10257 28.2338C1.10257 27.7856 1.10257 27.4495 1.10257 27.0573C3.00728 27.0853 3.2314 27.0853 3.2314 26.329C3.20339 23.4719 3.2314 3.5282 3.2314 2.996C3.2314 2.37976 2.92323 2.35175 1.10257 2.35175C1.07456 1.87557 1.13059 1.17529 1.13059 1.17529H18.0211Z" fill="black"/>
<path d="M40.9338 2.63185C39.0851 3.86433 37.7966 6.69343 37.1804 9.04634C36.2 12.6037 36.3961 16.8053 37.3765 21.119C38.3848 25.4327 41.1579 26.9453 42.8106 27.3094C45.8918 28.0097 47.9085 26.217 49.001 24.5643C51.1298 21.3431 51.662 14.7045 50.9897 10.895C50.3735 7.36569 49.4211 4.90073 47.5724 3.24809C45.4997 1.42739 42.5304 1.56744 40.9338 2.63185ZM57.5443 19.3823C56.2558 23.2198 53.6788 25.6288 50.7097 27.1974C46.8161 29.2982 41.242 29.6343 37.3484 27.3094C34.9395 25.8808 28.8052 22.0714 29.6175 13.0799C29.7856 11.1471 30.7659 6.30127 36.1721 2.65987C39.8694 0.250932 45.1915 -0.449339 50.1494 1.84755C57.8804 5.37691 59.5051 14.0883 57.5443 19.3823Z" fill="black"/>
<path d="M80.2614 2.43578C80.2894 4.45257 80.2614 8.62617 80.2614 8.62617L79.281 8.65419C78.6928 6.04918 77.4322 3.80831 75.2755 2.77191C73.2027 1.76352 70.0655 1.25933 68.0206 3.05202C66.8162 4.11643 66.6481 5.20885 67.0682 6.44132C67.7966 8.26204 69.8133 8.82225 71.3819 9.52252C72.6705 10.0267 75.4155 10.9231 75.4155 10.9231C78.4686 11.9875 81.858 14.0603 82.7823 17.5056C83.2025 18.9902 83.2025 20.6708 82.8664 22.1834C82.11 25.5447 79.9533 26.357 78.7208 27.1974C78.1045 27.6175 72.3343 29.8304 65.3877 27.5615C63.959 27.0853 62.3064 26.5251 62.3064 26.5251V18.9902C62.3064 18.9902 63.0627 19.0182 63.3708 19.0182C63.847 20.2227 64.2672 21.6792 65.2756 23.1358C67.6285 26.5531 70.9618 27.5895 74.6312 26.8052C76.0878 26.4691 77.6844 25.4607 78.1045 23.9481C78.6367 22.2394 78.4686 19.4103 73.3147 17.5056C69.5892 15.7969 64.9114 15.0967 62.6986 10.9511C61.8302 8.62618 62.0823 4.59261 64.9394 2.63185C67.8246 0.671094 70.6256 0.222925 74.015 0.671094C77.3763 1.14728 78.2726 1.59545 80.2614 2.43578Z" fill="black"/>
<path d="M104.799 2.43578C104.827 4.45257 104.799 8.62617 104.799 8.62617L103.818 8.65419C103.23 6.04918 101.969 3.80831 99.8127 2.77191C97.7398 1.76352 94.6026 1.25933 92.5578 3.05202C91.3534 4.11643 91.1853 5.20885 91.6054 6.44132C92.3337 8.26204 94.3505 8.82225 95.9191 9.52252C97.2076 10.0267 99.9527 10.9231 99.9527 10.9231C103.006 11.9875 106.395 14.0603 107.32 17.5056C107.74 18.9902 107.74 20.6708 107.404 22.1834C106.647 25.5447 104.49 26.357 103.258 27.1974C102.642 27.6175 96.8715 29.8304 89.9247 27.5615C88.4962 27.0853 86.8436 26.5251 86.8436 26.5251V18.9902C86.8436 18.9902 87.5999 19.0182 87.908 19.0182C88.3841 20.2227 88.8044 21.6792 89.8128 23.1358C92.1656 26.5531 95.499 27.5895 99.1684 26.8052C100.625 26.4691 102.222 25.4607 102.642 23.9481C103.174 22.2394 103.006 19.4103 97.8518 17.5056C94.1264 15.7969 89.4486 15.0967 87.2358 10.9511C86.3674 8.62618 86.6195 4.59261 89.5046 2.63185C92.3617 0.671094 95.1628 0.222925 98.5241 0.671094C101.913 1.14728 102.81 1.59545 104.799 2.43578Z" fill="black"/>
</svg>
