<svg width="91" height="50" viewBox="0 0 91 50" fill="none" xmlns="http://www.w3.org/2000/svg">
<g clip-path="url(#clip0_22_200)">
<path d="M66.2584 36.2372H59.2125V49.9968H66.3183V43.7888L74.7061 49.9968H81.808V36.2372H74.7007V42.5005L66.2584 36.2372V36.2372ZM45.2118 0.00305176C20.258 0.00305176 0.0302734 20.2315 0.0302734 45.1842C0.0302734 46.8107 0.116414 48.4151 0.283559 49.9973H5.01518C4.8262 48.3999 4.73172 46.7927 4.73222 45.1842C4.73222 22.8284 22.8559 4.705 45.212 4.705C67.5682 4.705 85.6921 22.8284 85.6921 45.1842C85.6921 46.8132 85.5958 48.4191 85.4093 49.9973H90.1405C90.3095 48.3985 90.3941 46.7919 90.3938 45.1842C90.3929 20.2315 70.1648 0.00305176 45.2118 0.00305176V0.00305176ZM49.0036 36.2372H41.4482L32.4937 49.9968H39.8277L40.823 48.4573H49.6292L50.6253 49.9968H57.959L49.0036 36.2372ZM47.2867 44.8H43.1657L45.2262 41.6165L47.2867 44.8ZM15.1527 36.2372H8.48683V49.9968H15.5942V44.5557L19.8398 48.8007L24.0844 44.5557V49.9968H31.1917V36.2372H24.5256L19.8396 40.9237L15.1527 36.2372V36.2372Z" fill="black"/>
</g>
<defs>
<clipPath id="clip0_22_200">
<rect width="90.4162" height="50" fill="white"/>
</clipPath>
</defs>
</svg>
