<svg width="223" height="30" viewBox="0 0 223 30" fill="none" xmlns="http://www.w3.org/2000/svg">
<path d="M21.9853 4.96091C21.4328 4.96043 20.7087 5.32112 20.3758 5.76194L5.89764 24.9407C5.56495 25.3813 5.74453 25.7421 6.29694 25.7421H23.1116C23.6638 25.7421 24.3884 25.3813 24.7214 24.9407L39.2125 5.76885C39.5455 5.32803 39.366 4.96734 38.8137 4.96698L21.9853 4.96091" fill="black"/>
<path d="M52.1197 5.76194C52.4523 5.32112 52.2725 4.96043 51.7202 4.96043H43.8192C43.2667 4.96043 42.5423 5.32112 42.2095 5.76194L27.725 24.9407C27.3921 25.3813 27.5715 25.7421 28.1239 25.7421H36.0321C36.5843 25.7421 37.3087 25.3813 37.6414 24.9407L52.1197 5.76194Z" fill="black"/>
<path d="M56.8708 4.96043C56.3185 4.96043 55.5939 5.32112 55.2613 5.76194L40.7766 24.9407C40.4439 25.3813 40.6233 25.7421 41.1757 25.7421H47.2016C47.7538 25.7421 48.4784 25.3813 48.8113 24.9407L63.2959 5.76194C63.6285 5.32112 63.4492 4.96043 62.8969 4.96043H56.8708" fill="black"/>
<path d="M52.8312 24.9471C52.4986 25.3883 52.678 25.7487 53.2307 25.7478L57.3811 25.7435C57.9334 25.7426 58.6576 25.3814 58.9906 24.9407L73.4681 5.76888C73.8012 5.32806 73.6218 4.96701 73.0695 4.96612L68.9186 4.96183C68.3664 4.96094 67.6422 5.32115 67.3096 5.76232L52.8312 24.9471Z" fill="black"/>
<path d="M63.629 24.9419C63.2955 25.3819 63.474 25.7421 64.0267 25.7421H67.042C67.5943 25.7421 68.3193 25.3819 68.6528 24.9416L83.1281 5.83719C83.4616 5.39691 83.2826 5.03652 82.7303 5.03652H79.7288C79.1765 5.03652 78.451 5.39691 78.1175 5.8367L63.629 24.9419Z" fill="black"/>
<path d="M90.3297 15.5345C89.7774 15.5345 89.5975 15.1738 89.9297 14.7326L92.6101 11.1742C92.9428 10.733 93.6665 10.3721 94.2188 10.3721H112.867C113.42 10.3721 113.872 10.8242 113.873 11.3764L113.878 14.5234C113.879 15.0758 113.427 15.5279 112.875 15.5279L90.3297 15.5345V15.5345ZM89.257 5.03674C88.7047 5.03657 87.9801 5.39695 87.6466 5.83724L73.1709 24.9485C72.8374 25.3888 73.0163 25.7487 73.5686 25.7482L80.5983 25.743C81.1506 25.7426 81.8752 25.3819 82.2087 24.9416L84.5184 21.8924C84.8519 21.452 85.5769 21.0917 86.1292 21.0913L112.867 21.0853C113.42 21.0848 113.872 21.5368 113.872 22.0891V24.7378C113.872 25.2902 114.324 25.7426 114.876 25.743L120.397 25.7482C120.949 25.7487 121.401 25.2971 121.401 24.7447V6.04779C121.401 5.49559 120.949 5.04352 120.397 5.04334L89.257 5.03674" fill="black"/>
<path d="M125.125 24.7378C125.125 25.2902 125.577 25.7421 126.129 25.7421H131.65C132.202 25.7421 132.654 25.2902 132.654 24.7378L132.66 14.1791C132.66 13.6269 133.05 13.4046 133.526 13.6852L143.976 19.8477C144.451 20.1285 145.292 20.3576 145.845 20.3568L149.857 20.3525C150.409 20.3517 151.251 20.1219 151.727 19.8417L162.175 13.6912C162.651 13.4109 163.041 13.6338 163.041 14.186L163.034 24.7378C163.034 25.2902 163.486 25.7421 164.039 25.7421H169.566C170.118 25.7421 170.57 25.2902 170.57 24.7378V6.04774C170.57 5.49554 170.118 5.04311 169.566 5.04258L164.045 5.0374C163.493 5.03705 162.661 5.28184 162.197 5.5815L148.701 14.3045C148.238 14.6044 147.478 14.6044 147.014 14.3045L133.505 5.5815C133.04 5.28184 132.209 5.03705 131.656 5.0374L126.129 5.04258C125.577 5.04311 125.125 5.49554 125.125 6.04774V24.7378" fill="black"/>
<path d="M174.335 24.7378C174.335 25.2902 174.787 25.7421 175.339 25.7421H216.139C216.692 25.7421 217.144 25.2902 217.144 24.7378V14.3936C217.144 13.8414 216.692 13.3893 216.139 13.389L196.052 13.3829C195.499 13.3824 195.048 13.8345 195.049 14.3867L195.052 16.3919C195.053 16.9443 195.506 17.3967 196.058 17.397L208.61 17.4092C209.162 17.4097 209.615 17.8621 209.615 18.4143V19.4784C209.615 20.0307 209.162 20.4826 208.61 20.4823L182.875 20.4762C182.323 20.4757 181.871 20.0238 181.871 19.4714V11.3141C181.871 10.7619 182.323 10.3098 182.875 10.3098L216.139 10.3029C216.692 10.3029 217.144 9.85096 217.144 9.29858V6.04084C217.144 5.48859 216.692 5.03652 216.139 5.03652L175.339 5.04347C174.787 5.04347 174.335 5.49554 174.335 6.04775V24.7378" fill="black"/>
</svg>
