<svg width="150" height="40" viewBox="0 0 150 40" fill="none" xmlns="http://www.w3.org/2000/svg">
<path d="M18.6291 0.250854H7.11568C6.3278 0.250854 5.65776 0.823245 5.53486 1.60102L0.878298 31.1246C0.785705 31.7071 1.23688 32.2323 1.82779 32.2323H7.32442C8.1123 32.2323 8.78234 31.66 8.90524 30.8805L10.1611 22.9175C10.2823 22.1381 10.9541 21.5657 11.7403 21.5657H15.385C22.9692 21.5657 27.3463 17.8956 28.4894 10.6229C29.0046 7.44109 28.5113 4.94109 27.0214 3.19025C25.385 1.26769 22.4827 0.250854 18.6291 0.250854ZM19.9574 11.0337C19.3278 15.165 16.1712 15.165 13.119 15.165H11.3817L12.6005 7.44951C12.6729 6.98318 13.077 6.63974 13.5483 6.63974H14.3446C16.4238 6.63974 18.385 6.63974 19.3985 7.82493C20.0029 8.532 20.1881 9.58251 19.9574 11.0337Z" fill="black"/>
<path d="M53.0452 10.9007H47.5317C47.062 10.9007 46.6563 11.2442 46.5839 11.7105L46.3398 13.2526L45.9543 12.6937C44.7607 10.9613 42.099 10.3822 39.4425 10.3822C33.3499 10.3822 28.1462 14.9967 27.1327 21.4697C26.6058 24.6987 27.3549 27.7862 29.1866 29.9394C30.8667 31.9192 33.2708 32.7442 36.131 32.7442C41.0401 32.7442 43.7623 29.5876 43.7623 29.5876L43.5165 31.1196C43.4239 31.7054 43.8751 32.2307 44.4627 32.2307H49.429C50.2186 32.2307 50.8852 31.6583 51.0098 30.8788L53.9896 12.0085C54.0839 11.4277 53.6344 10.9007 53.0452 10.9007ZM45.36 21.6314C44.828 24.7812 42.328 26.8957 39.1394 26.8957C37.5384 26.8957 36.259 26.3822 35.4374 25.4091C34.6226 24.4428 34.3128 23.0674 34.5721 21.5354C35.0687 18.4125 37.6108 16.229 40.7506 16.229C42.3162 16.229 43.5889 16.7492 44.4273 17.7307C45.2674 18.7223 45.6007 20.1061 45.36 21.6314Z" fill="black"/>
<path d="M82.4086 10.9007H76.8682C76.3396 10.9007 75.843 11.1633 75.5433 11.6027L67.9019 22.8586L64.6628 12.0421C64.4591 11.3653 63.8345 10.9007 63.1275 10.9007H57.683C57.0214 10.9007 56.5618 11.5472 56.7723 12.1701L62.8749 30.0791L57.1376 38.1785C56.6864 38.8165 57.141 39.6936 57.9204 39.6936H63.4541C63.9793 39.6936 64.4709 39.4377 64.7689 39.0068L83.1965 12.4074C83.6376 11.7711 83.1847 10.9007 82.4086 10.9007Z" fill="black"/>
<path d="M100.752 0.250854H89.237C88.4508 0.250854 87.7808 0.823245 87.6579 1.60102L83.0013 31.1246C82.9088 31.7071 83.3599 32.2323 83.9475 32.2323H89.8566C90.4054 32.2323 90.8751 31.8317 90.961 31.2862L92.2825 22.9175C92.4037 22.1381 93.0754 21.5657 93.8616 21.5657H97.5047C105.091 21.5657 109.466 17.8956 110.611 10.6229C111.128 7.44109 110.631 4.94109 109.141 3.19025C107.506 1.26769 104.606 0.250854 100.752 0.250854ZM102.08 11.0337C101.453 15.165 98.296 15.165 95.2421 15.165H93.5064L94.7269 7.44951C94.7993 6.98318 95.2 6.63974 95.6731 6.63974H96.4694C98.5468 6.63974 100.51 6.63974 101.523 7.82493C102.128 8.532 102.311 9.58251 102.08 11.0337Z" fill="black"/>
<path d="M135.167 10.9007H129.657C129.184 10.9007 128.781 11.2442 128.711 11.7105L128.467 13.2526L128.079 12.6937C126.886 10.9613 124.226 10.3822 121.569 10.3822C115.477 10.3822 110.275 14.9967 109.261 21.4697C108.736 24.6987 109.482 27.7862 111.313 29.9394C112.997 31.9192 115.398 32.7442 118.258 32.7442C123.167 32.7442 125.889 29.5876 125.889 29.5876L125.643 31.1196C125.551 31.7054 126.002 32.2307 126.593 32.2307H131.557C132.344 32.2307 133.014 31.6583 133.137 30.8788L136.118 12.0085C136.209 11.4277 135.758 10.9007 135.167 10.9007ZM127.482 21.6314C126.953 24.7812 124.45 26.8957 121.261 26.8957C119.664 26.8957 118.381 26.3822 117.559 25.4091C116.744 24.4428 116.438 23.0674 116.694 21.5354C117.194 18.4125 119.733 16.229 122.872 16.229C124.438 16.229 125.711 16.7492 126.549 17.7307C127.392 18.7223 127.726 20.1061 127.482 21.6314Z" fill="black"/>
<path d="M141.666 1.06059L136.941 31.1246C136.848 31.7071 137.299 32.2323 137.887 32.2323H142.638C143.427 32.2323 144.097 31.6599 144.219 30.8805L148.879 1.35857C148.971 0.776081 148.52 0.249146 147.932 0.249146H142.613C142.143 0.250829 141.739 0.594263 141.666 1.06059Z" fill="black"/>
</svg>
