<svg width="372" height="20" viewBox="0 0 372 20" fill="none" xmlns="http://www.w3.org/2000/svg">
<path d="M33.4916 10.346H16.0736V16.545H12.5146V1.15399H33.4926C35.1886 1.15399 36.5556 2.52099 36.5556 4.24199V7.25899C36.5546 8.95499 35.1886 10.346 33.4916 10.346ZM32.9967 4.80699C32.9967 4.42999 32.7137 4.12399 32.3367 4.12399H16.0736V7.35199H32.3367C32.7137 7.35199 32.9967 7.06899 32.9967 6.69199V4.80699Z" fill="black"/>
<path d="M61.3112 16.545H42.9283C41.2303 16.545 39.8643 15.178 39.8643 13.457V4.24199C39.8643 2.52099 41.2313 1.15399 42.9283 1.15399H61.3122C63.0102 1.15399 64.4002 2.52099 64.4002 4.24199V13.457C64.3992 15.178 63.0092 16.545 61.3112 16.545ZM60.8162 4.80699C60.8162 4.42999 60.5332 4.12399 60.1562 4.12399H44.0833C43.7063 4.12399 43.4233 4.42999 43.4233 4.80699V12.892C43.4233 13.269 43.7063 13.552 44.0833 13.552H60.1572C60.5342 13.552 60.8172 13.27 60.8172 12.892V4.80699H60.8162Z" fill="black"/>
<path d="M89.1097 16.545V15.461C89.1097 11.996 87.6247 10.346 84.5847 10.346H72.0697V16.545H68.5117V1.15399H89.2767C90.9967 1.15399 92.3637 2.52099 92.3637 4.24199V7.25899C92.3637 8.45999 91.5637 9.42699 90.4777 9.78099C92.0097 10.865 92.6707 12.727 92.6707 15.131V16.545H89.1097ZM88.8037 4.80699C88.8037 4.42999 88.5207 4.12399 88.1207 4.12399H72.0697V7.35199H88.1207C88.5217 7.35199 88.8037 7.06899 88.8037 6.69199V4.80699Z" fill="black"/>
<path d="M117.545 16.545H96.5674V13.552H116.39C116.767 13.552 117.05 13.27 117.05 12.892V11.006C117.05 10.629 116.767 10.345 116.39 10.345H99.6314C97.9354 10.345 96.5674 8.95499 96.5674 7.25799V4.24199C96.5674 2.52099 97.9354 1.15399 99.6314 1.15399H120.137V4.12399H100.786C100.409 4.12399 100.126 4.42999 100.126 4.80699V6.69299C100.126 7.06999 100.409 7.35299 100.786 7.35299H117.544C119.24 7.35299 120.607 8.74399 120.607 10.441V13.458C120.608 15.178 119.241 16.545 117.545 16.545Z" fill="black"/>
<path d="M127.806 16.545C126.108 16.545 124.742 15.178 124.742 13.457V4.24199C124.742 2.52099 126.109 1.15399 127.806 1.15399H147.84V4.12399H128.961C128.584 4.12399 128.301 4.42999 128.301 4.80699V12.892C128.301 13.269 128.584 13.552 128.961 13.552H147.84V16.545H127.806Z" fill="black"/>
<path d="M171.088 16.545V10.346H155.132V16.545H151.573V1.15399H155.132V7.35199H171.088V1.15399H174.647V16.545H171.088Z" fill="black"/>
<path d="M178.924 16.545V1.15399H202.965V4.12399H182.484V7.35199H202.495V10.345H182.484V13.551H202.965V16.544H178.924V16.545Z" fill="black"/>
<path d="M240.241 16.545H219.265V1.15399H240.241C241.891 1.15399 243.305 2.47299 243.305 4.12399V13.457C243.305 15.178 241.939 16.545 240.241 16.545ZM239.747 4.80699C239.747 4.42999 239.463 4.12399 239.087 4.12399H222.823V13.552H239.087C239.463 13.552 239.747 13.27 239.747 12.892V4.80699Z" fill="black"/>
<path d="M247.463 16.545V1.15399H271.504V4.12399H251.023V7.35199H271.034V10.345H251.023V13.551H271.504V16.544H247.463V16.545Z" fill="black"/>
<path d="M296.52 16.545H275.544V13.552H295.365C295.743 13.552 296.025 13.27 296.025 12.892V11.006C296.025 10.629 295.744 10.345 295.365 10.345H278.608C276.91 10.345 275.544 8.95499 275.544 7.25799V4.24199C275.544 2.52099 276.911 1.15399 278.608 1.15399H299.114V4.12399H279.763C279.385 4.12399 279.103 4.42999 279.103 4.80699V6.69299C279.103 7.06999 279.384 7.35299 279.763 7.35299H296.52C298.218 7.35299 299.584 8.74399 299.584 10.441V13.458C299.584 15.178 298.218 16.545 296.52 16.545Z" fill="black"/>
<path d="M304.096 16.545V1.15399H307.655V16.545H304.096Z" fill="black"/>
<path d="M332.994 16.545H315.105C313.409 16.545 312.041 15.178 312.041 13.457V4.24199C312.041 2.52099 313.409 1.15399 315.105 1.15399H336.083V4.12399H316.26C315.883 4.12399 315.6 4.42999 315.6 4.80699V12.892C315.6 13.269 315.883 13.552 316.26 13.552H331.863C332.239 13.552 332.523 13.27 332.523 12.892V10.345H324.416V7.35199H336.083V13.457C336.083 15.178 334.715 16.545 332.994 16.545Z" fill="black"/>
<path d="M360.816 16.545L343.894 4.99699V16.546H340.334V1.15399H343.894L360.815 12.703V1.15399H364.375V16.545H360.816Z" fill="black"/>
</svg>
