<svg width="206" height="104" viewBox="0 0 206 104" fill="none" xmlns="http://www.w3.org/2000/svg">
<path d="M181.594 92.258V95.358H206V98H181.594V101.1H206V103.735H178.488V89.625H206V92.259H181.594V92.258ZM171.717 95.337H152.858V89.6H149.758V103.707H152.858V98.439H171.716V103.707H174.817V89.6H171.716L171.717 95.337ZM120.551 92.736V100.611C120.54 102.332 121.926 103.736 123.647 103.747C123.653 103.747 123.658 103.747 123.664 103.747L146.142 103.725V100.624H124.084C123.87 100.619 123.695 100.455 123.679 100.242V93.16C123.71 92.906 123.929 92.717 124.185 92.722H146.142V89.622H123.7C121.971 89.615 120.562 91.01 120.551 92.739V92.736ZM113.719 95.354L93.919 95.362C93.647 95.378 93.414 95.171 93.398 94.899C93.398 94.891 93.397 94.882 93.397 94.875V92.761C93.397 92.486 93.621 92.261 93.897 92.261C93.903 92.261 93.91 92.261 93.917 92.261H116.39V89.626H93.347C91.637 89.647 90.266 91.048 90.284 92.758V94.873C90.284 96.604 91.688 98.008 93.419 98.008L113.219 98.001C113.494 97.989 113.728 98.204 113.739 98.48C113.739 98.483 113.739 98.486 113.739 98.489V100.612C113.738 100.883 113.516 101.101 113.245 101.1C113.237 101.1 113.227 101.099 113.219 101.098H90.71V103.733H113.724C115.451 103.736 116.853 102.338 116.857 100.612V98.489C116.851 96.761 115.451 95.362 113.722 95.356V95.354H113.719ZM86.693 103.659V103.695H83.573V103.14C83.573 101.41 82.17 100.006 80.439 100.006H63.146V103.718H60.046V89.611H83.546C85.266 89.609 86.662 91.002 86.664 92.722V95.781C86.674 97.464 85.346 98.851 83.664 98.913C85.514 99.768 86.697 101.623 86.693 103.661V103.659ZM83.552 93.259C83.549 92.967 83.315 92.731 83.023 92.725L63.145 92.717V96.903H83.08C83.349 96.883 83.556 96.657 83.55 96.387L83.552 93.259ZM56.3 92.729V100.604C56.309 102.319 54.926 103.717 53.211 103.725C53.203 103.725 53.194 103.725 53.186 103.725H33.341C31.614 103.738 30.204 102.348 30.192 100.621C30.192 100.619 30.192 100.617 30.192 100.614V92.741C30.2 91.009 31.61 89.612 33.342 89.619H53.235C54.938 89.637 56.306 91.026 56.3 92.729ZM53.207 93.259C53.198 92.965 52.958 92.729 52.664 92.727H33.821C33.565 92.721 33.346 92.91 33.314 93.164V100.246C33.331 100.459 33.506 100.624 33.72 100.628H52.712C52.988 100.612 53.206 100.388 53.212 100.11L53.207 93.259ZM26.546 92.729V96.889C26.548 98.61 25.155 100.006 23.435 100.008C23.43 100.008 23.424 100.008 23.419 100.008H3.1V103.723H0V89.616H23.419C25.139 89.606 26.541 90.995 26.55 92.715C26.55 92.72 26.55 92.726 26.55 92.73H26.546V92.729ZM23.439 93.262C23.437 92.969 23.202 92.732 22.91 92.727L3.1 92.721V96.907H22.971C23.242 96.891 23.45 96.661 23.441 96.389L23.439 93.262Z" fill="black"/>
<path fill-rule="evenodd" clip-rule="evenodd" d="M114.446 46.302L114.18 46.363C114.169 46.3739 114.159 46.3849 114.148 46.3958C115.104 44.8384 115.652 43.0368 115.7 41.158V40.6H132.098C131.998 43.777 131.409 46.919 130.354 49.918C129.096 53.434 127.421 56.784 125.36 59.897C123.212 63.106 120.608 65.984 117.63 68.442C116.467 69.426 115.239 70.333 113.957 71.155C111.951 72.377 109.853 73.448 107.685 74.354C107.524 74.4235 107.367 74.492 107.215 74.5586C106.69 74.7881 106.217 74.9954 105.775 75.145C105.618 75.1981 105.467 75.2501 105.323 75.2997C104.9 75.4452 104.536 75.5704 104.259 75.645V75.278L104.269 51.924C104.609 51.915 104.941 51.889 105.279 51.85C105.287 51.8698 105.297 51.9048 105.31 51.9492C105.328 52.0104 105.35 52.0893 105.38 52.171C105.526 52.44 105.781 52.634 106.08 52.702C106.446 52.775 106.821 52.644 107.059 52.358C107.399 52.66 107.879 52.742 108.301 52.572C108.632 52.485 108.862 52.187 108.862 51.845C108.883 51.619 108.847 51.39 108.757 51.182L108.642 50.9703C109.478 50.6215 110.275 50.1825 111.019 49.661C111.018 49.6616 111.018 49.6619 111.018 49.662L111.089 49.641C111.347 49.5758 111.774 49.444 112.315 49.2772C114.272 48.6737 117.717 47.6113 120.022 47.58C121.836 47.541 123.63 47.972 125.229 48.833C126.048 49.311 126.785 49.916 127.414 50.625C127.417 50.6292 127.42 50.6342 127.423 50.6399C127.441 50.6694 127.467 50.7141 127.532 50.725C127.578 50.726 127.621 50.698 127.639 50.655C127.851 50.131 127.938 49.566 127.893 49.003C127.839 48.2417 127.193 47.6574 126.833 47.3316C126.766 47.2709 126.708 47.2192 126.667 47.177C126.657 47.167 126.637 47.111 126.729 47.047C126.833 46.945 126.946 46.854 127.067 46.774C127.581 46.366 128.211 46.13 128.866 46.098C128.963 46.108 128.932 45.966 128.905 45.854C128.719 45.054 127.578 44.535 126.378 44.72C125.571 44.884 124.863 45.365 124.413 46.054C124.389 46.09 124.28 46.143 124.235 46.096C123.849 45.956 123.453 45.841 123.053 45.753C122.923 45.7226 122.972 45.6339 122.989 45.6032C122.991 45.5996 122.992 45.5968 122.993 45.595C123.231 45.165 123.563 44.795 123.965 44.514C124.426 44.15 124.968 43.903 125.545 43.796C125.616 43.796 125.616 43.702 125.598 43.671C125.368 43.181 124.926 42.825 124.399 42.704C123.544 42.427 122.606 42.594 121.899 43.15C121.223 43.712 120.727 44.461 120.475 45.304C120.466 45.3174 120.458 45.3302 120.451 45.342C120.425 45.3874 120.407 45.4175 120.36 45.408C120.192 45.3733 119.889 45.3685 119.632 45.3644C119.407 45.3609 119.218 45.3579 119.186 45.336C119.138 45.314 119.147 45.244 119.159 45.193C119.292 44.734 119.536 44.315 119.869 43.973C120.169 43.57 120.571 43.255 121.032 43.059C121.059 43.047 121.08 43.028 121.098 43.005C121.157 42.927 121.141 42.817 121.063 42.758C119.729 42.07 118.095 42.423 117.164 43.6C116.71 44.28 116.379 45.035 116.186 45.829C116.18 45.857 116.132 45.943 116.071 45.943L114.446 46.302ZM111.023 49.656C111.029 49.65 111.039 49.6395 111.053 49.624C111.039 49.6337 111.024 49.6433 111.01 49.653L111.018 49.656H111.023ZM120.346 53.668C120.662 53.07 121.174 52.6 121.797 52.337L121.798 52.334C122.779 51.961 123.883 52.369 124.387 53.289C124.442 53.389 124.409 53.452 124.321 53.457C123.647 53.609 123.026 53.937 122.522 54.411C122.514 54.4185 122.506 54.4256 122.498 54.4326C122.395 54.5255 122.345 54.5709 122.356 54.664C122.356 54.683 122.358 54.718 122.369 54.728C122.913 55.258 123.333 55.902 123.597 56.615C123.808 57.15 123.791 57.748 123.552 58.269C123.441 58.342 123.307 58.37 123.177 58.349C122.787 57.877 122.352 57.447 121.876 57.062C121.294 56.576 120.604 56.232 119.864 56.062C118.73 55.84 117.565 55.816 116.421 55.992C114.211 56.291 112.081 57.016 110.146 58.124C110.038 58.195 109.997 58.222 110.038 58.271C110.261 58.496 110.387 58.799 110.391 59.113C110.46 59.652 110.194 60.179 109.718 60.441C109.267 60.695 108.715 60.695 108.264 60.441C108.082 60.31 107.927 60.146 107.807 59.956C107.784 59.91 107.739 59.883 107.727 59.893C107.672 59.942 107.614 59.989 107.552 60.03C106.872 60.49 105.946 60.31 105.487 59.629C105.163 59.22 105.099 58.664 105.321 58.192C105.34 58.1634 105.357 58.137 105.374 58.1126C105.542 57.8578 105.57 57.8156 105.832 57.676C105.886 57.655 105.853 57.614 105.832 57.596C105.368 57.268 105.198 56.66 105.425 56.139C105.581 55.837 105.821 55.587 106.117 55.419C106.559 55.186 107.081 55.161 107.543 55.35C107.971 55.601 108.28 56.016 108.401 56.497C108.413 56.534 108.455 56.522 108.471 56.516C108.591 56.4588 108.818 56.3421 109.045 56.2255C109.266 56.1116 109.487 55.9978 109.608 55.94C109.668 55.9281 109.663 55.8785 109.66 55.8516C109.659 55.8469 109.659 55.8429 109.659 55.84C109.495 55.221 109.45 54.577 109.524 53.94C109.637 53.038 110.174 52.243 110.971 51.804C111.599 51.447 112.331 51.317 113.044 51.438C113.081 51.441 113.114 51.461 113.135 51.492C113.171 51.548 113.156 51.622 113.1 51.659C112.815 51.891 112.577 52.177 112.401 52.5C111.979 53.197 111.811 54.017 111.924 54.825C111.932 54.859 111.961 54.886 111.997 54.89C112.347 54.776 112.705 54.683 113.068 54.613C113.123 54.596 113.168 54.554 113.191 54.5C113.248 53.65 113.433 52.814 113.74 52.02C114.013 51.463 114.451 51.004 114.995 50.707C115.811 50.158 116.85 50.057 117.756 50.439C117.794 50.458 117.788 50.622 117.67 50.702C116.926 51.15 116.318 51.794 115.913 52.564C115.705 52.967 115.594 53.411 115.588 53.863L115.588 53.8633C115.586 53.9162 115.584 53.966 115.63 53.98C115.93 53.974 116.228 53.947 116.524 53.898C116.577 53.896 116.612 53.861 116.641 53.79C116.727 52.9 117.106 52.066 117.721 51.417C118.241 50.894 118.96 50.617 119.696 50.656C120.274 50.674 120.817 50.941 121.184 51.389C121.188 51.396 121.191 51.405 121.192 51.414C121.196 51.45 121.17 51.484 121.133 51.488C120.585 51.711 120.098 52.058 119.709 52.504C119.42 52.785 119.207 53.134 119.09 53.519C119.09 53.5211 119.088 53.5246 119.087 53.5291C119.077 53.563 119.049 53.6552 119.166 53.664C119.308 53.6764 119.501 53.7013 119.694 53.7263C119.889 53.7513 120.083 53.7764 120.227 53.789C120.267 53.8225 120.311 53.7354 120.336 53.6875C120.34 53.6798 120.343 53.673 120.346 53.668ZM133.238 40.345C133.531 28.858 133.91 5.68698 133.91 5.68698C133.851 5.65598 133.79 5.62798 133.729 5.60298C130.626 4.36198 127.444 3.32798 124.205 2.50898C119.735 1.42998 115.188 0.697977 110.604 0.319977C108.358 0.121977 106.33 0.0539775 104.069 0.0269775H103.878C101.618 0.0539775 99.5899 0.119977 97.3429 0.319977C92.7599 0.696977 88.2129 1.42898 83.7429 2.50898C80.5029 3.32798 77.3219 4.36198 74.2189 5.60298C74.0889 5.65398 74.0269 5.67598 74.0269 5.67598C74.0269 5.67598 74.4059 28.859 74.6979 40.345C74.7739 43.727 75.3899 47.076 76.5219 50.264C77.8309 53.891 79.5739 57.344 81.7139 60.551C83.9529 63.862 86.6609 66.829 89.7539 69.36C90.9649 70.376 92.2409 71.309 93.5739 72.155C95.6619 73.418 97.8429 74.52 100.097 75.456C100.3 75.5415 100.496 75.626 100.685 75.7078C101.192 75.9264 101.652 76.1252 102.084 76.27C102.699 76.507 103.328 76.702 103.97 76.854C104.611 76.702 105.24 76.507 105.855 76.27C106.315 76.1136 106.818 75.8967 107.374 75.6566C107.526 75.5912 107.681 75.5241 107.841 75.456C110.094 74.52 112.275 73.418 114.364 72.155C115.697 71.309 116.973 70.376 118.184 69.36C121.276 66.828 123.984 63.862 126.223 60.551C128.363 57.345 130.106 53.89 131.415 50.264C132.547 47.075 133.162 43.727 133.238 40.345ZM95.1389 47.875H76.9389C76.3089 45.59 75.9409 43.24 75.8429 40.872H92.4579V41.16C92.4889 43.653 93.4439 46.046 95.1389 47.875ZM86.2499 64.575H103.25L103.253 64.572V75.511C103.036 75.4397 102.792 75.355 102.526 75.2629C102.408 75.2219 102.285 75.1794 102.159 75.136C101.723 74.9896 101.255 74.7846 100.737 74.5577C100.578 74.4885 100.416 74.4172 100.248 74.345C98.0799 73.439 95.9829 72.369 93.9759 71.146C92.6929 70.324 91.4659 69.417 90.3029 68.433C88.8659 67.241 87.5119 65.951 86.2499 64.575ZM80.6219 56.66H103.25V63.673H85.4439C84.4029 62.477 83.4429 61.212 82.5689 59.89C81.8709 58.819 81.2219 57.742 80.6219 56.66ZM96.2999 49.008C98.2659 50.659 100.692 51.663 103.25 51.884V55.759H80.1359C79.1419 53.874 78.2859 51.919 77.5749 49.911C77.4329 49.504 77.2999 49.098 77.1749 48.691H95.9409C96.0579 48.799 96.1779 48.908 96.2999 49.008ZM97.5919 9.74998C99.5439 9.57498 101.323 9.50598 103.25 9.47498L103.246 24.256H93.8099C93.691 24.2448 93.7413 24.1979 93.8183 24.1264C93.8307 24.1149 93.8437 24.1027 93.8569 24.09C94.5329 23.585 95.3159 23.242 96.1459 23.09C96.2159 23.084 96.2389 23.045 96.1389 22.917C95.3579 22.139 94.2019 21.876 93.1619 22.239C92.2319 22.538 91.4939 23.251 91.1619 24.169C91.1489 24.227 91.0979 24.269 91.0379 24.269C90.5729 24.304 89.9949 24.31 89.5299 24.31C89.4529 24.31 89.4109 24.208 89.4179 24.131C89.5519 23.484 89.9509 22.923 90.5179 22.584C91.0129 22.256 91.5839 22.059 92.1769 22.012C92.1919 22.008 92.2069 22 92.2199 21.99C92.2749 21.947 92.2849 21.868 92.2429 21.812C92.1449 21.697 92.0309 21.596 91.9049 21.512C91.4109 21.247 90.8409 21.161 90.2909 21.268C88.6659 21.426 87.3869 22.726 87.2569 24.354C87.2491 24.3993 87.2461 24.4363 87.2436 24.4672C87.2354 24.568 87.2325 24.6042 87.0879 24.654C86.8445 24.736 86.4573 24.801 86.1213 24.8574C85.9616 24.8843 85.8135 24.9091 85.6979 24.933C85.6329 24.944 85.5399 24.798 85.5539 24.733C85.6869 24.125 85.9529 23.554 86.3339 23.062C86.6239 22.673 86.9979 22.355 87.4279 22.131C87.5129 22.088 87.5879 21.99 87.5129 21.925C86.7039 21.221 85.0429 21.965 84.3749 22.7C83.7429 23.535 83.4319 24.569 83.4959 25.614C83.4959 25.6298 83.5009 25.6493 83.5059 25.6689C83.5162 25.7087 83.5267 25.7493 83.4959 25.762C83.0869 25.938 82.6549 26.093 82.2169 26.238C82.1851 26.2483 82.176 26.1885 82.1691 26.143C82.1673 26.1312 82.1657 26.1204 82.1639 26.112C82.0359 25.357 82.2039 24.582 82.6329 23.947C82.8209 23.625 83.0909 23.359 83.4149 23.174C83.4489 23.155 83.4399 23.117 83.4149 23.085C83.0489 22.607 81.5949 22.95 81.1489 23.385C80.2145 24.2966 80.1924 25.1825 80.1597 26.4974C80.1565 26.6263 80.1531 26.7594 80.1489 26.897C80.1459 26.971 80.0519 27.254 79.9719 27.291C79.7899 27.399 79.5899 27.475 79.3819 27.515C79.3661 27.5194 79.3538 27.5242 79.3438 27.5281C79.3114 27.5406 79.3046 27.5433 79.2909 27.492C79.2619 27.399 79.2229 27.31 79.1739 27.226C78.8239 26.632 78.0589 26.434 77.4649 26.784C77.4229 26.812 77.3829 26.842 77.3439 26.875C76.8659 27.286 76.8109 28.006 77.2219 28.484C77.2699 28.54 77.2829 28.595 77.2119 28.617C77.209 28.6178 77.206 28.6188 77.203 28.6198C77.1984 28.6212 77.1936 28.6228 77.1889 28.624C76.4829 28.858 76.0999 29.619 76.3329 30.326C76.4899 30.717 76.8609 30.979 77.2819 30.999C77.7029 31.01 78.1179 30.889 78.4659 30.652C78.5269 30.608 78.6119 30.622 78.6569 30.683C79.0159 31.263 79.7769 31.442 80.3569 31.083C80.8729 30.741 81.1059 30.205 80.7199 29.292C80.6989 29.241 80.7849 29.145 80.8329 29.119C83.8979 27.354 87.3569 26.384 90.8939 26.299C91.3939 26.343 91.8849 26.454 92.3559 26.627C92.3809 26.632 92.4049 26.641 92.4279 26.653L92.4329 29.664C92.3999 29.694 92.3639 29.72 92.3259 29.742C91.6699 30.145 91.1789 30.769 90.9439 31.502C90.9299 31.558 90.9219 31.571 90.8299 31.58C90.5803 31.6043 90.3236 31.634 90.0656 31.6639C89.6867 31.7078 89.3049 31.752 88.9379 31.78C88.9029 31.786 88.8369 31.719 88.8489 31.686C89.2939 30.494 90.1069 29.474 91.1699 28.775C91.2249 28.718 91.2369 28.633 91.1999 28.563C91.0499 28.418 90.8659 28.315 90.6639 28.263C89.5809 28.182 88.5219 28.611 87.7999 29.423C87.1619 30.218 86.8099 31.203 86.7999 32.223C86.7989 32.2366 86.7986 32.2517 86.7984 32.2674C86.7972 32.3348 86.7958 32.4131 86.7399 32.431C86.4743 32.5146 86.1899 32.5933 85.9071 32.6716C85.7672 32.7103 85.6276 32.7489 85.4909 32.788C85.4439 32.799 85.3789 32.748 85.3719 32.699C85.1569 31.384 85.7749 30.072 86.9249 29.399C87.0879 29.274 86.8039 29.074 86.5969 29.074C85.3719 29.009 84.2259 29.677 83.6779 30.774C83.3809 31.589 83.3469 32.476 83.5779 33.311C83.5803 33.3248 83.5839 33.3405 83.5878 33.3568C83.6044 33.428 83.6244 33.5135 83.5619 33.529C83.3962 33.5689 83.0837 33.6808 82.8356 33.7696C82.7047 33.8165 82.5918 33.8569 82.5279 33.877C82.4599 33.899 82.4149 33.866 82.3759 33.777C82.2299 33.27 82.2069 32.735 82.3089 32.216C82.4539 31.624 82.7499 31.081 83.1669 30.638C83.1919 30.607 83.2029 30.536 83.1669 30.519C82.7869 30.349 82.3569 30.321 81.9579 30.442C81.2979 30.609 80.7419 31.052 80.4309 31.657C79.9219 32.61 80.0509 33.526 80.5929 34.874C80.6189 34.938 80.6499 35.061 80.5929 35.1L80.1559 35.358C80.1009 35.396 80.0519 35.36 80.0139 35.306C79.9836 35.2628 79.952 35.2152 79.9189 35.1655C79.7604 34.9276 79.5688 34.6397 79.3389 34.538C78.8969 34.319 78.3699 34.362 77.9699 34.651C77.5789 34.994 77.4289 35.537 77.5899 36.031C77.6779 36.204 77.7839 36.367 77.9059 36.518C77.9379 36.561 77.9039 36.631 77.8649 36.667C77.7789 36.7429 77.6782 36.809 77.5796 36.8738C77.4626 36.9506 77.3484 37.0256 77.2649 37.113C76.9209 37.554 76.9079 38.167 77.2309 38.623C77.5539 39.086 78.1619 39.252 78.6749 39.017C78.9309 38.907 79.1789 38.777 79.4139 38.627C79.437 38.6115 79.4581 38.5927 79.4781 38.5749C79.534 38.525 79.5808 38.4833 79.6369 38.546C79.8319 38.767 80.0799 38.935 80.3569 39.035C80.7459 39.138 81.1599 39.065 81.4899 38.835C81.8979 38.642 82.1199 38.195 82.0279 37.753C81.9269 37.441 81.7719 37.149 81.5699 36.891C81.5129 36.8324 81.4845 36.8064 81.4876 36.7849C81.4902 36.7659 81.517 36.7503 81.5699 36.719C83.2399 35.734 85.0249 34.956 86.8849 34.403C88.6369 33.876 90.4659 33.651 92.2929 33.739H92.4419L92.4519 39.976H75.8159C75.6439 33.15 75.4459 22.338 75.3159 14.892C75.3309 14.884 75.3459 14.877 75.3609 14.871C78.3429 13.667 81.4029 12.665 84.5189 11.871C88.8149 10.826 93.1859 10.116 97.5919 9.74998ZM132.291 32.456H115.721V33.739L115.71 39.7H132.129C132.182 37.5793 132.236 35.0951 132.291 32.456ZM132.434 25.273H115.733V26.652V29.663V31.44H132.323C132.349 29.7455 132.382 28.0031 132.415 26.2637C132.421 25.9333 132.428 25.6029 132.434 25.273ZM104.266 17.23H132.58H132.581C132.573 17.6495 132.566 18.0761 132.558 18.5089C132.526 20.3409 132.492 22.2823 132.453 24.257H104.266V17.23ZM132.621 14.8919C132.606 14.884 132.592 14.877 132.576 14.871C129.594 13.667 126.534 12.665 123.418 11.871C119.122 10.826 114.751 10.116 110.346 9.74998C108.252 9.56398 106.358 9.49698 104.266 9.46898V16.327H132.6C132.604 15.965 132.61 15.6101 132.615 15.2621C132.617 15.1378 132.619 15.0144 132.621 14.8919ZM132.76 6.67193C132.7 6.64195 132.639 6.61496 132.576 6.59098C129.594 5.38798 126.534 4.38598 123.418 3.59098C119.122 2.54498 114.752 1.83498 110.346 1.46798C108.184 1.27598 106.235 1.20998 104.061 1.18398H103.877C101.703 1.21098 99.7539 1.27598 97.5929 1.46798C93.1869 1.83498 88.8159 2.54498 84.5199 3.59098C81.4039 4.38598 78.3439 5.38798 75.3619 6.59098C75.2379 6.63998 75.1779 6.66198 75.1779 6.66198C75.1779 6.66198 75.2259 9.63598 75.3009 13.962C75.3199 13.95 75.3409 13.94 75.3619 13.931C78.3439 12.728 81.4039 11.726 84.5199 10.931C88.8159 9.88198 93.1869 9.16998 97.5929 8.79998C99.7539 8.60798 101.712 8.48398 103.885 8.45798H104.071C106.244 8.48398 108.184 8.60798 110.346 8.79998C114.751 9.16698 119.122 9.87598 123.418 10.921C126.534 11.716 129.594 12.718 132.576 13.921C132.597 13.929 132.617 13.94 132.637 13.952C132.71 9.7389 132.758 6.80804 132.76 6.67193ZM116.293 63.225C116.552 62.717 116.932 62.28 117.4 61.954C118.165 61.464 119.79 61.5 120.195 62.44C120.232 62.525 120.241 62.566 120.173 62.587C119.84 62.701 119.523 62.856 119.228 63.046C118.796 63.368 118.463 63.805 118.265 64.305C118.269 64.323 118.277 64.34 118.288 64.354C118.541 64.483 118.764 64.661 118.947 64.879C119.384 65.401 119.333 66.172 118.832 66.632C118.792 66.671 118.675 66.631 118.632 66.608C118.314 66.275 117.95 65.987 117.552 65.754C116.535 65.259 115.394 65.076 114.273 65.224C112.629 65.481 111.082 66.167 109.785 67.21C109.702 67.273 109.668 67.353 109.71 67.384C109.979 67.557 110.201 67.796 110.356 68.075C110.53 68.534 110.386 69.053 110 69.356C109.719 69.608 109.322 69.688 108.965 69.563C108.623 69.444 108.327 69.22 108.122 68.922C108.09 68.888 108.026 68.931 108.022 68.943C107.793 69.418 107.381 69.778 106.881 69.943C106.545 69.986 106.207 69.883 105.952 69.661C105.61 69.321 105.502 68.81 105.68 68.361C105.822 68.087 106.032 67.853 106.288 67.679C106.326 67.653 106.292 67.625 106.271 67.616C106.09 67.559 105.925 67.46 105.791 67.324C105.342 66.87 105.345 66.137 105.799 65.688C106.069 65.426 106.453 65.319 106.817 65.407C107.216 65.526 107.55 65.802 107.745 66.169C107.761 66.194 107.794 66.179 107.806 66.169C107.895 66.099 107.974 66.0389 108.056 65.9776C108.129 65.9225 108.203 65.8663 108.287 65.801C108.326 65.7841 108.287 65.7527 108.26 65.7308C108.25 65.7229 108.242 65.7162 108.24 65.712C108.093 65.451 107.985 65.169 107.922 64.876C107.667 64.156 107.81 63.355 108.298 62.767C108.722 62.285 109.363 62.052 109.998 62.15C110.108 62.189 110.079 62.251 110.022 62.299C109.43 62.941 109.317 63.892 109.744 64.655C109.754 64.6827 109.797 64.6759 109.82 64.6724C109.825 64.6716 109.829 64.671 109.831 64.671C109.954 64.6219 110.063 64.5696 110.172 64.5171C110.281 64.4646 110.39 64.4119 110.515 64.362C110.553 64.3462 110.535 64.3026 110.525 64.2773C110.523 64.2738 110.522 64.2707 110.521 64.268C110.346 63.672 110.332 63.042 110.482 62.44C110.738 61.668 111.282 61.026 112.001 60.647C112.504 60.348 113.131 60.348 113.633 60.647L113.639 60.653C113.693 60.705 113.694 60.793 113.641 60.848C113.241 61.237 112.893 61.676 112.606 62.155C112.403 62.54 112.326 62.98 112.389 63.412C112.391 63.451 112.422 63.482 112.461 63.483C112.711 63.448 112.957 63.389 113.195 63.307C113.222 63.2994 113.22 63.276 113.217 63.2439C113.216 63.225 113.214 63.2033 113.218 63.18C113.431 62.245 113.995 61.426 114.795 60.895C115.656 60.346 117.422 60.272 117.773 61.131C117.785 61.157 117.799 61.201 117.751 61.221C116.788 61.485 115.98 62.141 115.523 63.028C115.515 63.043 115.515 63.118 115.531 63.118L116.21 63.325C116.243 63.3437 116.263 63.2947 116.278 63.2566C116.284 63.2438 116.288 63.2323 116.293 63.225ZM99.6579 15.007C99.3979 14.284 98.7349 13.782 97.9679 13.729C97.2129 13.636 96.4479 13.747 95.7509 14.051C95.0309 14.44 94.4669 15.064 94.1509 15.818C94.1309 15.858 94.0899 15.883 94.0459 15.882C93.4189 15.861 92.7719 15.851 92.1459 15.861C92.1019 15.861 92.0359 15.858 92.0359 15.814C92.1289 15.191 92.4129 14.614 92.8509 14.161C93.4869 13.609 94.2269 13.189 95.0269 12.925C95.0859 12.904 95.1579 12.809 95.1189 12.76C94.9519 12.53 94.7319 12.343 94.4769 12.217C93.3319 11.912 92.1109 12.137 91.1489 12.829C90.2329 13.432 89.6879 15.302 89.5789 15.971C89.5679 16.035 89.5149 16.083 89.4509 16.088C88.7219 16.18 87.9989 16.314 87.2859 16.488C87.2649 16.492 87.2489 16.455 87.2489 16.433C87.3039 15.729 87.5949 15.063 88.0749 14.544C88.5619 14.075 89.0899 13.652 89.6529 13.278C89.6939 13.241 89.6649 13.132 89.6129 13.113C88.7909 12.785 87.8729 12.798 87.0619 13.151C85.9099 13.64 85.0929 14.691 84.9029 15.928C84.8289 16.361 84.7979 16.801 84.8109 17.241C84.8139 17.2822 84.7589 17.2937 84.7093 17.304C84.6928 17.3074 84.6768 17.3107 84.6639 17.315C84.0165 17.5181 83.3421 17.7477 82.7569 17.9469C82.6307 17.9899 82.5086 18.0314 82.3919 18.071C82.3569 18.083 82.2679 18.077 82.2679 18.04C82.2429 17.3 82.4369 16.569 82.8279 15.94C83.0649 15.5521 83.4306 15.2694 83.7975 14.9857C84.0218 14.8123 84.2467 14.6384 84.4429 14.44C84.4799 14.4 84.5319 14.296 84.4799 14.275C83.1679 13.746 81.9259 14.288 80.8799 15.475C80.1639 16.529 79.9329 17.839 80.2449 19.075C80.2709 19.189 80.2389 19.313 80.1819 19.339C79.9429 19.451 79.6969 19.546 79.4449 19.624C79.4409 19.626 79.4369 19.627 79.4329 19.627C79.3899 19.635 79.3479 19.606 79.3399 19.563C79.0399 18.612 77.9269 18.798 77.4269 19.087C76.8759 19.399 76.6769 20.095 76.9819 20.65C76.9839 20.652 76.9849 20.654 76.9859 20.656C77.0129 20.704 76.9969 20.765 76.9499 20.793C76.9429 20.797 76.9369 20.8 76.9299 20.803C76.2299 21.151 75.9449 22.001 76.2929 22.701C76.5849 23.159 77.1619 23.344 77.6649 23.141C77.9429 23.034 78.2079 22.895 78.4539 22.727C78.4849 22.713 78.5209 22.718 78.5459 22.741C78.5609 22.762 78.5759 22.783 78.5929 22.803C79.0289 23.344 79.8209 23.43 80.3619 22.994C80.4084 22.9608 80.4513 22.9311 80.491 22.9036C80.7646 22.7141 80.8881 22.6287 81.0139 22.213C81.0559 21.866 80.9519 21.517 80.7249 21.251C80.6879 21.218 80.7209 21.126 80.7649 21.104C84.9249 18.958 89.5159 17.782 94.1949 17.662C95.8929 17.713 97.5239 18.337 98.8219 19.434C98.8669 19.499 98.9419 19.537 99.0219 19.534C99.1029 19.499 99.1649 19.434 99.1939 19.351C99.4149 18.563 99.1619 17.718 98.5429 17.182C98.0129 16.63 97.3319 16.247 96.5839 16.082C96.5429 16.071 96.5209 15.987 96.5529 15.96C96.8569 15.655 97.2219 15.416 97.6239 15.26C98.2629 15.152 98.9099 15.098 99.5579 15.099C99.6029 15.094 99.6719 15.05 99.6579 15.007ZM104.037 51.006C110.016 51.006 114.864 46.158 114.864 40.179V25.25H93.2109V40.179C93.2109 46.158 98.0579 51.006 104.037 51.006Z" fill="black"/>
<path d="M131.182 7.42402C131.182 7.55102 131.175 7.77402 131.168 7.89302H131.161L130.797 7.75402L130.542 7.65402L130.512 7.64302C129.88 7.41802 129.274 7.21002 128.698 7.02302C128.122 6.83602 127.575 6.66702 127.063 6.52302H127.05H127.037L126.589 6.39602L126.123 6.26602L125.73 6.15902V6.19102V6.47502V6.75802V7.27202L125.974 7.33902L126.146 7.38602L126.447 7.47202L126.747 7.55802C127.406 7.74802 128.064 7.94802 128.716 8.15802C129.368 8.36802 130.016 8.58302 130.649 8.80702L130.803 8.85902L131.149 8.97602V9.12802C131.149 9.26002 131.134 10.119 131.134 10.119L131.113 10.111L130.777 10.011L130.545 9.93702C129.876 9.70102 129.17 9.46602 128.445 9.23702C127.72 9.00802 126.98 8.78702 126.245 8.57802L125.669 8.41202L125.658 8.95802L125.65 9.49002V9.50202L125.881 9.57302L126.333 9.70602L126.774 9.83802L126.954 9.89302L127.133 9.94802C127.769 10.141 128.381 10.337 128.967 10.536C129.554 10.735 130.173 10.922 130.703 11.125L130.758 11.144L130.816 11.168L130.917 11.207L131.107 11.279C131.119 11.628 131.11 11.977 131.081 12.324H131.068L130.732 12.205L130.668 12.182L130.604 12.159C129.532 11.769 128.463 11.442 127.504 11.134C126.545 10.826 125.373 10.459 124.496 10.225V10.2C124.503 9.72702 124.517 8.83002 124.533 7.98602C124.55 7.14202 124.581 4.85402 124.59 4.78602C124.686 4.80002 126.707 5.38002 127.682 5.69502C128.657 6.01002 129.643 6.35002 130.608 6.70802L130.643 6.72202L130.862 6.79902L131.175 6.91202C131.18 7.03902 131.182 7.30002 131.182 7.42402ZM123.048 4.47402C122.904 4.43502 122.755 4.39902 122.608 4.36502C122.46 4.33102 122.186 4.27102 122.048 4.24102V4.26702C122.048 4.28602 122.048 4.35902 122.048 4.37802V4.43502V4.52302V4.61102C122.048 4.67702 122.048 4.74402 122.042 4.81102C122.036 4.87802 122.042 4.94302 122.042 5.01102V5.06702C122.042 5.24002 122.034 5.41602 122.025 5.59402C122.017 5.77202 122.008 5.95302 121.994 6.13602V6.26002L121.984 6.48702H121.976L121.708 6.43202L121.508 6.39102L121.343 6.35502L121.177 6.32002C120.777 6.23702 120.353 6.14902 119.92 6.06102C119.487 5.97302 119.047 5.88402 118.62 5.80102L118.557 5.78902L118.496 5.77802L118.178 5.71902L117.86 5.66402L117.776 5.64902L117.787 5.02102L117.796 4.41202V3.48002C117.796 3.47102 117.796 3.36402 117.796 3.35502L117.528 3.31302L117.329 3.28102L117.087 3.24202C117.006 3.22902 116.831 3.20402 116.75 3.19302V3.20002V3.36302V3.44902C116.741 3.76302 116.728 4.20702 116.713 4.71002C116.698 5.21302 116.681 5.77402 116.664 6.32302C116.664 6.48302 116.653 6.64002 116.647 6.79202C116.641 6.94402 116.637 7.09202 116.631 7.23402C116.622 7.47102 116.614 7.69102 116.608 7.89302C116.6 8.09502 116.596 8.41502 116.596 8.57502V8.58702C116.655 8.59602 116.819 8.63102 116.873 8.64002L117.035 8.66802L117.31 8.71402C117.41 8.73002 117.609 8.76202 117.728 8.77902H117.745L117.751 8.36902L117.756 8.05802C117.756 8.05802 117.762 7.88702 117.766 7.66902C117.772 7.45102 117.776 7.18402 117.776 6.98202V6.85702C117.776 6.79102 117.776 6.64802 117.783 6.60702V6.60002C117.809 6.60002 117.915 6.62302 117.955 6.63102L117.995 6.63902L118.04 6.64702C118.239 6.68202 118.726 6.77702 119.331 6.89702C119.936 7.01702 120.657 7.16202 121.323 7.29702L121.41 7.31402L121.497 7.33102L121.717 7.38002L121.937 7.42902H121.951C121.951 7.48902 121.943 7.76002 121.943 7.81902V7.98102V8.14302C121.943 8.27302 121.943 8.39302 121.935 8.51102C121.929 8.62902 121.929 8.74202 121.927 8.86002V9.00102V9.14102L121.921 9.27102L121.912 9.48902V9.50402L122.25 9.58202L122.481 9.63702L122.68 9.68602L123.003 9.76002V9.75402L123.012 9.43302L123.018 9.27902C123.039 8.64002 123.055 7.90702 123.067 7.13502C123.079 6.36302 123.088 5.55302 123.098 4.76002V4.48002H123.086L123.048 4.47402ZM112.284 2.53402C111.384 2.43402 110.663 2.36002 110.341 2.32502C110.057 2.30802 109.778 2.40402 109.563 2.59102C109.348 2.74002 109.203 2.97002 109.163 3.22802C109.14 3.45702 109.153 5.09402 109.153 5.09402L109.143 7.04902C109.142 7.14902 109.159 7.24702 109.194 7.34002C109.225 7.42502 109.276 7.50302 109.341 7.56702C109.449 7.66902 109.582 7.74002 109.727 7.77302C109.804 7.79302 109.884 7.80402 109.964 7.80602L110.022 7.81102L110.079 7.81602C110.879 7.89102 111.731 7.97102 112.608 8.06302C113.483 8.15502 114.313 8.23902 115.208 8.36302L115.608 8.42402L115.616 7.88502V7.42102L115.149 7.35402L114.798 7.30302L114.76 7.29802H114.721C114.028 7.20902 113.337 7.13402 112.594 7.04302C111.85 6.95202 111.159 6.86402 110.446 6.79202C110.405 6.78802 110.366 6.76702 110.338 6.73502C110.31 6.70302 110.294 6.66202 110.293 6.61902V3.71902C110.28 3.61902 110.317 3.52002 110.394 3.45402C110.481 3.39102 110.585 3.35602 110.693 3.35402C111.156 3.39102 115.136 3.92502 115.767 4.01102L115.777 3.51902C115.783 3.38502 115.777 3.25402 115.777 3.11202V2.95002C114.921 2.82802 113.459 2.66802 112.284 2.53402ZM99.7439 6.65502C99.8989 6.97202 99.9919 7.31602 100.018 7.66802L98.7619 7.74402C98.6829 7.38002 98.5529 7.02902 98.3759 6.70202C98.2009 6.31802 97.8099 6.07902 97.3879 6.10202C96.8449 6.16402 94.1669 6.43802 94.1569 6.44702C94.1469 6.45602 94.1569 8.16302 94.1569 8.16302L93.5769 8.24002L92.9969 8.31702V5.55602V2.82902C92.9969 2.82902 98.1669 2.23902 98.7399 2.27302C99.3129 2.30702 99.4399 2.60702 99.4729 2.90902C99.5459 3.54202 99.5689 4.18002 99.5409 4.81802C99.4609 5.16002 99.2439 5.45402 98.9409 5.63102C99.2739 5.91602 99.5469 6.26402 99.7439 6.65502ZM98.3639 3.81502C98.3759 3.70302 98.3359 3.59202 98.2539 3.51502C98.1329 3.43802 97.9909 3.40102 97.8479 3.40802L94.1219 3.77802V4.60602V5.43402L95.9129 5.27202L97.7039 5.11102C97.8859 5.09802 98.0569 5.02102 98.1869 4.89202C98.3079 4.76502 98.3739 4.59602 98.3709 4.42102L98.3639 3.81502ZM91.6449 3.85402C91.6449 4.11102 91.6679 7.29102 91.6679 7.54702C91.6179 8.03602 91.2729 8.44302 90.7989 8.57302C90.3139 8.66602 86.0829 9.49902 85.6989 9.57302C85.3149 9.64702 84.8299 9.16002 84.8299 8.75402C84.8299 8.34802 84.8229 5.08502 84.8229 5.08502C84.8229 4.67902 85.2649 4.35102 85.6419 4.25802C86.0189 4.16502 90.4799 3.30702 90.7689 3.25002C91.1769 3.17902 91.5659 3.44802 91.6449 3.85402ZM90.4639 4.83302C90.4639 4.52002 90.3289 4.24202 89.8509 4.32002C89.2379 4.42002 87.2359 4.78102 86.5669 4.91202C86.0179 5.01902 85.8049 5.22502 85.8049 5.69602V8.04002C85.8049 8.37502 86.0119 8.62402 86.3609 8.56002C86.7099 8.49602 89.6449 7.93302 89.9799 7.86002C90.2859 7.79602 90.4989 7.51602 90.4799 7.20402C90.4849 6.89302 90.4639 5.00002 90.4639 4.83302ZM107.169 4.38902C106.74 4.36202 106.27 4.34802 105.8 4.34102C105.331 4.33402 104.846 4.33202 104.389 4.33002C104.094 4.33002 102.507 4.34302 102.474 4.33002C102.442 4.32302 102.412 4.30702 102.39 4.28302C102.349 4.23102 102.328 4.16602 102.33 4.10102C102.329 4.03302 102.331 3.96402 102.337 3.89602V3.69602C102.333 3.53802 102.341 3.37902 102.364 3.22202C102.395 3.15502 102.464 3.12202 102.619 3.11402C102.739 3.11402 104.675 3.12102 105.988 3.13102H106.294H106.466C106.837 3.12102 107.279 3.15302 107.61 3.14702V2.19002C107.032 2.15802 106.643 2.14302 106.065 2.12902H105.96C105.638 2.11902 105.287 2.11102 104.935 2.10502C103.562 2.08502 102.073 2.10502 101.913 2.10502C101.756 2.12602 101.607 2.18702 101.48 2.28102C101.367 2.34502 101.288 2.45502 101.26 2.58102L101.247 3.69002L101.234 4.79902C101.258 4.92802 101.34 5.03902 101.456 5.09902C101.592 5.19202 101.751 5.24602 101.916 5.25502C102.156 5.26002 102.403 5.26402 102.647 5.26702L103.358 5.27402C103.837 5.27402 104.344 5.28302 104.852 5.29402C105.36 5.30502 105.871 5.32402 106.358 5.35602C106.5 5.36502 106.559 5.42202 106.586 5.50902C106.605 5.62002 106.607 5.73202 106.595 5.84302L106.589 5.97202L106.583 6.10102C106.597 6.22002 106.581 6.34102 106.538 6.45302C106.495 6.52002 106.407 6.54202 106.227 6.54202C106.216 6.54202 105.727 6.53202 105.537 6.53202C105.347 6.53202 105.147 6.53202 104.931 6.53202L104.218 6.52302C103.98 6.52302 103.741 6.52302 103.502 6.52302C103.09 6.52302 102.693 6.52302 102.323 6.53802C101.953 6.55302 101.532 6.57002 101.223 6.59102L101.185 7.54802C101.715 7.52302 102.285 7.50102 102.727 7.49002C103.169 7.47902 103.577 7.47402 103.94 7.47402C104.302 7.47402 104.606 7.47902 104.901 7.48802C105.194 7.49702 105.473 7.50802 105.761 7.52002L106.362 7.54302L107.039 7.56302C107.197 7.55002 107.349 7.48802 107.47 7.38602C107.597 7.30302 107.681 7.17002 107.704 7.02102L107.714 5.96902L107.724 4.91702C107.703 4.78302 107.631 4.66202 107.525 4.57802C107.426 4.48102 107.303 4.41602 107.169 4.38902ZM83.6849 5.60802L83.7349 7.79102C83.7359 7.84402 83.7299 7.89702 83.7169 7.94902C83.6879 8.04802 83.6339 8.13702 83.5589 8.20902C83.4829 8.29402 83.3879 8.36002 83.2809 8.40002L77.8909 10.085L77.9209 11.938C77.9209 11.938 76.5659 12.427 76.4859 12.446C76.4859 12.355 76.4859 10.276 76.4859 9.84602C76.4859 8.89402 76.4509 7.14602 76.4549 7.09802C76.4589 7.05002 76.4859 7.03502 76.5609 7.00902C76.6359 6.98302 78.2879 6.39002 80.3309 5.68702C80.9399 5.47802 82.3609 5.04702 82.6499 4.99602C82.8849 4.94602 83.1299 4.98702 83.3359 5.11002C83.5219 5.21402 83.6509 5.39802 83.6849 5.60802ZM82.4579 7.28002C82.4579 7.12802 82.4319 6.66402 82.4169 6.51402C82.4039 6.41302 82.3589 6.32002 82.2879 6.24802C82.2159 6.17002 82.1159 6.12602 82.0109 6.12402H81.9449C81.9449 6.12402 80.7359 6.46802 80.0849 6.68802C79.4339 6.90802 77.7949 7.53502 77.7949 7.53502C77.7949 7.53502 77.8189 9.12602 77.8189 9.16202L81.9559 7.83102C82.0789 7.79102 82.1909 7.72302 82.2819 7.63102C82.3829 7.54102 82.4459 7.41602 82.4579 7.28002Z" fill="black"/>
<path d="M100.435 26.726V28.236C100.447 28.404 100.409 28.573 100.325 28.719C100.233 28.845 100.08 28.913 99.9248 28.898C99.7678 28.911 99.6138 28.844 99.5168 28.719C99.4288 28.574 99.3868 28.405 99.3978 28.236V26.726C99.3978 26.616 99.3088 26.526 99.1978 26.526C99.0878 26.526 98.9978 26.616 98.9978 26.726V28.11C98.9778 28.404 99.0478 28.697 99.1978 28.95C99.3688 29.179 99.6448 29.305 99.9298 29.283C100.216 29.311 100.494 29.184 100.661 28.95C100.801 28.694 100.863 28.403 100.842 28.112V26.727C100.842 26.617 100.753 26.527 100.642 26.527C100.531 26.527 100.442 26.617 100.442 26.727L100.435 26.726ZM102.468 26.891C102.575 26.891 102.661 26.805 102.661 26.698C102.661 26.592 102.575 26.505 102.468 26.505H101.334C101.228 26.505 101.141 26.591 101.141 26.698C101.141 26.805 101.227 26.891 101.334 26.891H101.703V29.077C101.703 29.187 101.791 29.277 101.902 29.278C102.012 29.279 102.103 29.19 102.103 29.079C102.103 29.079 102.103 29.078 102.103 29.077V26.892L102.468 26.891ZM104.26 26.891C104.367 26.891 104.453 26.805 104.453 26.698C104.453 26.592 104.367 26.505 104.26 26.505H103.126C103.02 26.505 102.933 26.591 102.933 26.698C102.933 26.805 103.019 26.891 103.126 26.891H103.495V29.077C103.495 29.187 103.584 29.277 103.693 29.278C103.804 29.279 103.894 29.19 103.894 29.079C103.894 29.079 103.894 29.078 103.894 29.077V26.892L104.26 26.891ZM106.43 27.661H105.815C105.647 27.661 105.627 27.746 105.627 27.821C105.618 27.922 105.691 28.011 105.792 28.02C105.8 28.021 105.808 28.021 105.815 28.021H106.25V28.144C106.28 28.498 106.056 28.825 105.715 28.924C105.497 28.931 105.3 28.799 105.224 28.596C105.12 28.367 105.072 28.117 105.078 27.867C105.08 27.619 105.14 27.376 105.252 27.156C105.318 26.974 105.484 26.849 105.678 26.837C105.859 26.854 106.018 26.962 106.102 27.123C106.147 27.201 106.246 27.229 106.325 27.187C106.405 27.164 106.45 27.081 106.427 27.002C106.427 27.001 106.427 26.999 106.426 26.998C106.318 26.68 106.009 26.475 105.673 26.498C105.378 26.474 105.097 26.632 104.965 26.898C104.792 27.192 104.704 27.528 104.71 27.869C104.7 28.214 104.781 28.557 104.944 28.861C105.08 29.141 105.362 29.321 105.673 29.326C105.843 29.324 106.008 29.277 106.153 29.19C106.397 29.004 106.567 28.736 106.63 28.436C106.658 28.274 106.671 28.11 106.668 27.946C106.668 27.813 106.635 27.663 106.435 27.663L106.43 27.661ZM113.029 26.891C113.136 26.891 113.222 26.805 113.222 26.698C113.222 26.592 113.136 26.505 113.029 26.505H111.9C111.793 26.505 111.707 26.591 111.707 26.698C111.707 26.805 111.793 26.891 111.9 26.891H112.269V29.077C112.269 29.187 112.358 29.277 112.468 29.278C112.579 29.279 112.669 29.19 112.669 29.079C112.669 29.079 112.669 29.078 112.669 29.077V26.892L113.029 26.891ZM110.7 28.257L110.763 28.235C110.904 28.185 111.031 28.103 111.136 27.995C111.308 27.832 111.392 27.597 111.365 27.362C111.351 27.103 111.225 26.862 111.019 26.703C110.822 26.575 110.588 26.51 110.353 26.517H109.746C109.685 26.513 109.626 26.536 109.585 26.581C109.549 26.624 109.531 26.68 109.533 26.736V29.06C109.519 29.165 109.596 29.261 109.7 29.274C109.711 29.275 109.722 29.275 109.732 29.275C109.836 29.282 109.927 29.203 109.933 29.099C109.935 29.086 109.934 29.074 109.933 29.061V28.324H110.308L110.908 29.151C110.948 29.209 111.014 29.242 111.085 29.241C111.203 29.241 111.273 29.179 111.277 29.077C111.275 29.011 111.25 28.948 111.205 28.9L110.7 28.257ZM109.922 27.941V26.891H110.401C110.553 26.882 110.702 26.934 110.815 27.036C110.917 27.124 110.976 27.25 110.979 27.385C110.969 27.703 110.704 27.952 110.385 27.942C110.369 27.942 110.354 27.941 110.338 27.939L109.922 27.941ZM108.322 26.704C108.278 26.581 108.17 26.494 108.042 26.475C107.908 26.488 107.796 26.583 107.762 26.714L107.02 29.047C107.002 29.104 107.014 29.167 107.051 29.213C107.082 29.262 107.135 29.295 107.192 29.302C107.293 29.302 107.384 29.288 107.421 29.161L107.534 28.752H108.591L108.713 29.152C108.741 29.238 108.823 29.295 108.913 29.293C108.98 29.296 109.045 29.266 109.087 29.213C109.124 29.145 109.128 29.064 109.099 28.992L108.322 26.704ZM108.436 28.44H107.617L108.052 26.94L108.509 28.44H108.436ZM96.6938 27.888C96.4318 27.737 96.1378 27.648 95.8358 27.63C95.6368 27.598 95.5018 27.411 95.5338 27.212C95.5338 27.208 95.5348 27.204 95.5358 27.201C95.6038 26.997 95.8038 26.868 96.0168 26.891C96.2078 26.886 96.3908 26.965 96.5168 27.109C96.6258 27.241 96.8238 27.096 96.8238 26.987C96.8238 26.861 96.6308 26.509 96.0438 26.504C95.8348 26.498 95.6288 26.557 95.4548 26.672C95.2718 26.788 95.1528 26.981 95.1318 27.196C95.1108 27.428 95.1918 27.658 95.3528 27.825C95.5008 27.967 95.6988 28.045 95.9038 28.045C96.1508 28.034 96.3848 28.153 96.5208 28.36C96.5738 28.487 96.5438 28.634 96.4448 28.73C96.3118 28.839 96.1448 28.896 95.9728 28.891C95.7868 28.887 95.6098 28.816 95.4728 28.691C95.4078 28.616 95.3058 28.584 95.2098 28.606C95.0678 28.654 95.0898 28.827 95.0998 28.858C95.2798 29.147 95.6008 29.317 95.9418 29.305C96.2338 29.326 96.5208 29.223 96.7328 29.023C96.8758 28.872 96.9538 28.671 96.9488 28.463C96.9668 28.239 96.8678 28.022 96.6868 27.889H96.6938V27.888ZM98.4698 26.911C98.5758 26.911 98.6628 26.824 98.6628 26.717C98.6628 26.611 98.5758 26.524 98.4698 26.524H97.3298C97.2228 26.524 97.1368 26.611 97.1368 26.717C97.1368 26.824 97.2228 26.911 97.3298 26.911H97.6988V29.1C97.6988 29.21 97.7878 29.3 97.8988 29.3C98.0098 29.3 98.0988 29.211 98.0988 29.1V26.912L98.4698 26.911Z" fill="black"/>
<path d="M82.2317 16.354C82.5477 15.67 83.0507 15.088 83.6817 14.676C83.9887 14.484 83.9997 14.405 83.9947 14.385C83.9897 14.364 83.9397 14.331 83.5267 14.329C82.9147 14.383 82.3347 14.628 81.8687 15.029C81.2957 15.528 80.8867 16.187 80.6937 16.921C80.5617 17.77 80.5787 18.635 80.7437 19.478C80.7437 19.478 79.6967 19.968 79.3437 20.167C79.2627 19.886 79.1267 19.623 78.9437 19.395C78.6187 19.121 78.1607 19.072 77.7847 19.27C77.4577 19.421 77.2667 19.765 77.3107 20.122C77.3487 20.393 77.4586 20.648 77.6306 20.861C77.3446 20.952 77.0847 21.111 76.8737 21.325C76.6057 21.6 76.4997 21.995 76.5927 22.368C76.7237 22.699 77.0667 22.896 77.4197 22.842C77.8547 22.749 78.2557 22.538 78.5787 22.232C78.7247 22.406 78.8827 22.571 79.0497 22.725C79.2227 22.856 79.4337 22.926 79.6497 22.925C79.8207 22.925 79.9897 22.884 80.1427 22.806C80.4487 22.633 80.6217 22.295 80.5867 21.946C80.5357 21.455 80.0697 21.263 80.0957 21.084C82.4507 19.766 84.9777 18.782 87.6047 18.162C89.3827 17.697 91.2027 17.409 93.0367 17.303C94.2037 17.178 95.3827 17.298 96.5007 17.656C97.4217 17.894 98.2657 18.364 98.9527 19.021L98.9697 19.037C98.9527 18.183 98.4617 17.409 97.6967 17.029C97.0807 16.645 96.3826 16.413 95.6586 16.349C95.8306 16.055 96.0377 15.784 96.2777 15.541C96.6687 15.159 97.1626 14.901 97.6996 14.8C98.1726 14.735 98.6497 14.707 99.1267 14.718C98.9607 14.327 98.5827 14.069 98.1576 14.059C97.6086 13.971 97.0457 14.022 96.5217 14.208C95.5847 14.615 94.8447 15.374 94.4607 16.32C93.4947 16.268 92.5256 16.273 91.5606 16.335C91.6596 15.554 91.9477 14.809 92.4007 14.165C92.9217 13.554 93.6127 13.111 94.3857 12.893C94.5037 12.857 94.6146 12.802 94.7146 12.73C94.5506 12.572 94.3297 12.41 93.5147 12.38C92.4617 12.397 91.4857 12.934 90.9076 13.814C90.4326 14.586 90.1516 15.461 90.0886 16.366C88.5416 16.642 86.7587 17.101 86.7587 17.101C86.7797 16.47 86.9127 15.848 87.1527 15.264C87.5197 14.532 88.0867 13.918 88.7867 13.494C88.7867 13.494 89.0537 13.321 89.1157 13.269C88.9047 13.18 88.6737 13.145 88.4457 13.169C87.9287 13.189 87.4237 13.325 86.9667 13.569C86.0137 14.102 85.4227 15.108 85.4197 16.2C85.3967 16.437 85.4647 17.367 85.4197 17.592C84.2267 17.898 83.0517 18.269 81.8987 18.702C81.7867 17.904 81.9027 17.09 82.2317 16.354Z" fill="black"/>
<path d="M95.165 23C95.165 23 95.555 22.89 95.708 22.838C95.628 22.762 95.539 22.698 95.441 22.648C95.089 22.463 94.696 22.371 94.298 22.38C93.891 22.377 93.487 22.462 93.115 22.628C92.352 23.056 91.788 23.767 91.546 24.607C91.546 24.607 90.629 24.635 90.278 24.659L88.963 24.748C88.976 24.524 89.0091 24.301 89.0631 24.083C89.1851 23.642 89.4 23.232 89.696 22.883C90.203 22.29 90.898 21.889 91.665 21.747C91.735 21.73 91.807 21.712 91.848 21.698C91.592 21.531 91.291 21.445 90.986 21.451C89.273 21.464 87.858 22.792 87.735 24.501C87.719 24.607 87.677 24.861 87.677 24.861C87.677 24.861 87.027 25.007 86.728 25.061C86.191 25.154 85.661 25.288 85.144 25.461C85.176 24.825 85.336 24.202 85.616 23.63C85.889 23.095 86.272 22.623 86.739 22.245C86.855 22.146 86.977 22.054 87.103 21.969C86.94 21.926 86.772 21.903 86.603 21.901C85.619 21.909 84.741 22.518 84.388 23.436C84.093 24.238 83.961 25.09 83.999 25.944C83.505 26.065 82.381 26.493 81.922 26.672C81.789 26.06 81.7951 25.425 81.9401 24.816C82.0561 24.289 82.3151 23.804 82.6901 23.416C82.7941 23.31 82.904 23.209 83.019 23.116C82.989 23.107 82.892 23.046 82.437 23.147C81.621 23.358 80.975 23.983 80.737 24.792C80.56 25.629 80.49 26.484 80.527 27.339C80.249 27.478 79.342 27.886 79.18 27.953C79.135 27.726 79.053 27.509 78.937 27.309C78.782 27.076 78.522 26.935 78.242 26.934C78.079 26.936 77.9191 26.976 77.7741 27.048C77.6291 27.123 77.521 27.255 77.474 27.411C77.407 27.612 77.4241 27.831 77.5211 28.02C77.5861 28.137 77.663 28.247 77.751 28.348C77.818 28.431 77.958 28.633 77.958 28.633C77.663 28.716 77.386 28.855 77.144 29.043C76.774 29.292 76.653 29.782 76.866 30.174C76.995 30.428 77.26 30.584 77.545 30.574C78.008 30.54 78.4401 30.325 78.7451 29.974C78.7451 29.974 79.065 30.454 79.113 30.528C79.259 30.746 79.506 30.873 79.767 30.865C79.91 30.866 80.051 30.832 80.178 30.765C80.459 30.594 80.629 30.287 80.624 29.959C80.604 29.674 80.487 29.404 80.293 29.195L80.221 29.095L80.878 28.749C81.93 28.157 83.029 27.655 84.166 27.249C85.984 26.605 87.868 26.165 89.783 25.937C90.176 25.879 90.574 25.855 90.971 25.868C91.464 25.898 91.949 26.006 92.408 26.188V24.2H93.2C93.708 23.598 94.397 23.177 95.165 23Z" fill="black"/>
<path d="M92.4148 30.351V33.244C92.1258 33.215 91.7648 33.188 91.4798 33.188C88.8778 33.337 86.3258 33.962 83.9498 35.033C82.8778 35.502 81.8398 36.044 80.8418 36.655C81.1958 36.844 81.4728 37.148 81.6288 37.517C81.7928 38.086 81.4288 38.617 80.6778 38.638C80.0028 38.661 79.8298 38.065 79.6198 37.838C79.5568 37.872 78.9878 38.414 78.7928 38.523C78.6258 38.62 78.4368 38.673 78.2438 38.676C77.9828 38.683 77.7328 38.569 77.5688 38.366C77.4178 38.179 77.3578 37.934 77.4048 37.699C77.4738 37.406 77.6708 37.158 77.9408 37.024C78.1408 36.927 78.3288 36.806 78.4998 36.664C78.4548 36.474 78.0848 36.164 77.9848 35.899C77.8568 35.512 77.9798 35.086 78.2938 34.827C78.6008 34.628 78.9988 34.639 79.2938 34.855C79.6748 35.083 79.8748 35.787 79.9358 35.855C80.1478 35.711 80.7838 35.285 81.1598 35.017C80.7228 34.256 80.5078 33.389 80.5368 32.512C80.7368 31.169 82.1038 30.258 82.7818 30.584C82.2328 31.153 81.9178 31.909 81.8998 32.7C81.8168 33.294 81.9178 33.9 82.1888 34.436C82.1888 34.436 83.6598 33.851 84.2008 33.69C83.8368 32.751 83.8068 31.715 84.1178 30.757C84.5858 29.851 85.5238 29.284 86.5438 29.289C85.2588 30.15 84.6818 31.745 85.1178 33.229C85.4178 33.159 87.1118 32.603 87.3178 32.54C87.2458 31.53 87.5458 30.529 88.1618 29.726C88.6528 29.041 89.4018 28.586 90.2358 28.465C90.4098 28.458 90.5828 28.48 90.7488 28.53C90.7428 28.598 90.7428 28.598 90.6148 28.686L90.5148 28.752C89.8178 29.309 89.2128 29.972 88.7208 30.716C88.4858 31.171 88.3648 31.676 88.3668 32.188L88.3738 32.252C88.3738 32.252 89.2488 32.094 89.9238 32.028C90.5988 31.962 91.2708 31.948 91.2708 31.948C91.3728 31.658 91.5068 31.381 91.6708 31.121C91.8798 30.829 92.1298 30.568 92.4148 30.349V30.351Z" fill="black"/>
<path d="M120.538 42.88C119.977 43.054 119.498 43.424 119.189 43.923C118.662 44.738 118.468 45.647 118.781 45.667C118.995 45.681 119.353 45.667 119.437 45.667C119.809 45.665 120.181 45.681 120.552 45.717C120.626 45.705 120.694 45.67 120.746 45.617C120.798 45.544 120.845 45.468 120.886 45.388C121.171 44.49 121.731 43.703 122.486 43.138C122.783 42.912 123.146 42.789 123.519 42.787C124.089 42.749 124.642 42.99 125.002 43.433C125.136 43.623 124.382 43.256 123.218 44.45C122.851 44.827 122.562 45.272 122.363 45.76C122.353 45.79 122.4 45.871 122.437 45.882C122.976 46.043 123.92 46.263 124.396 46.465C124.502 46.51 124.626 46.47 124.687 46.371C124.949 45.969 125.289 45.624 125.687 45.357C126.121 45.085 126.625 44.946 127.136 44.957L127.236 44.97C128.326 45.108 128.396 45.639 128.453 45.725C128.51 45.811 128.213 45.804 128.078 45.836C127.322 46.002 126.646 46.421 126.164 47.026C126.094 47.159 126.378 47.383 126.378 47.383C127.199 47.836 127.647 48.758 127.494 49.683C127.474 49.846 127.494 49.924 127.348 49.924C127.187 49.841 127.04 49.732 126.915 49.6C126.435 49.176 125.924 48.787 125.389 48.436C124.522 47.878 123.553 47.499 122.538 47.321C121.764 47.173 120.976 47.093 120.187 47.084C118.421 47.103 116.666 47.362 114.97 47.855C114.661 47.941 113.554 48.255 112.586 48.565L111.985 48.752L112.378 48.409C112.806 48.004 113.206 47.572 113.578 47.115L113.847 46.769L114.302 46.658L116.263 46.225C116.472 46.17 116.628 45.996 116.662 45.783C116.755 45.022 117.082 44.308 117.599 43.742C118.005 43.089 118.687 42.657 119.451 42.57C120.327 42.508 120.683 42.806 120.538 42.878V42.88V42.88Z" fill="black"/>
<path d="M106.438 57.646C106.115 57.398 105.911 57.025 105.875 56.62C105.87 56.224 106.104 55.865 106.467 55.709C106.865 55.557 107.312 55.596 107.677 55.814C108.117 56.124 108.136 56.433 108.294 56.89C108.311 56.902 108.329 56.911 108.351 56.916C108.728 56.726 109.396 56.422 109.851 56.168L110.091 56.035C110.091 56.035 110.191 56.004 110.152 55.864C110 55.384 109.923 54.88 109.924 54.375C109.968 53.815 110.152 53.274 110.461 52.806C111.161 51.605 112.493 51.711 112.36 51.826C111.894 52.361 111.581 53.012 111.451 53.709C111.384 54.099 111.388 54.498 111.461 54.887C111.485 55.061 111.502 55.272 111.608 55.332C111.715 55.393 112.139 55.17 112.401 55.07C112.733 54.945 113.188 54.888 113.494 54.806C113.671 54.757 113.619 54.661 113.62 54.623C113.596 53.538 113.901 52.47 114.495 51.562C114.96 50.95 115.657 50.556 116.421 50.471C116.698 50.443 117.105 50.571 116.978 50.653C116.813 50.757 116.654 50.873 116.504 50.998C116.081 51.337 115.72 51.747 115.435 52.207C115.093 52.878 114.968 53.64 115.079 54.386C115.683 54.387 116.285 54.308 116.87 54.152C116.963 54.117 117.031 54.037 117.055 53.941C117.272 53.249 117.505 51.947 118.235 51.46C118.589 51.165 119.03 50.994 119.491 50.973C119.831 50.954 120.725 51.224 120.524 51.324C119.974 51.561 119.489 51.928 119.112 52.393C118.824 52.76 118.645 53.201 118.598 53.665C118.541 53.923 118.827 53.994 118.827 53.994C119.317 54.027 119.806 54.088 120.289 54.178C120.435 54.204 120.542 54.014 120.575 53.956C120.792 53.603 121.067 53.291 121.391 53.033C121.702 52.732 122.11 52.552 122.541 52.521C123.445 52.521 123.895 53.177 123.768 53.22C122.992 53.42 122.304 53.873 121.815 54.508C121.787 54.543 121.704 54.587 121.838 54.708C122.656 55.378 123.193 56.329 123.344 57.375C123.344 57.459 123.399 57.827 123.272 57.884C122.697 57.192 122.02 56.591 121.264 56.101C120.229 55.57 119.075 55.309 117.911 55.341C116.492 55.353 115.082 55.566 113.723 55.972C112.208 56.429 110.756 57.074 109.401 57.89C109.618 58.044 109.783 58.26 109.875 58.511C110.07 58.939 109.941 59.447 109.565 59.73C109.336 59.902 109.04 59.951 108.77 59.861C108.114 59.769 107.938 59.101 107.856 58.89C107.77 59.114 107.606 59.298 107.395 59.411C106.975 59.745 106.362 59.675 106.028 59.253C106.007 59.227 105.987 59.198 105.968 59.169C105.68 58.778 105.746 58.232 106.117 57.921C106.388 57.689 106.439 57.644 106.439 57.644V57.646H106.438Z" fill="black"/>
<path d="M108.713 65.746C108.598 65.53 108.499 65.307 108.419 65.075C108.223 64.591 108.162 64.062 108.245 63.546C108.377 62.899 108.923 62.417 109.582 62.368C109.264 62.707 109.121 63.175 109.195 63.634C109.236 64.088 109.374 64.528 109.601 64.921C109.656 64.995 109.695 64.966 109.72 64.953C110.083 64.754 110.457 64.576 110.84 64.419C110.859 64.404 110.869 64.381 110.869 64.357C110.614 63.498 110.72 62.574 111.16 61.794C111.498 61.183 112.098 60.762 112.789 60.652C112.819 60.652 113.237 60.666 113.265 60.822C112.793 61.16 112.42 61.617 112.185 62.146C111.988 62.683 111.95 63.265 112.074 63.825C112.074 63.844 112.128 63.867 112.148 63.861C112.577 63.746 112.992 63.638 113.433 63.546C113.47 63.527 113.499 63.498 113.517 63.46C113.679 62.658 114.091 61.93 114.693 61.377C115.146 60.996 115.705 60.762 116.294 60.706C117.061 60.678 117.16 60.941 117.244 61.046C117.3 61.115 117.083 61.02 116.723 61.172C116.284 61.391 115.895 61.701 115.584 62.08C115.292 62.416 115.105 62.83 115.049 63.271C115.049 63.298 115.059 63.355 115.075 63.359C115.516 63.424 115.951 63.529 116.375 63.672C116.402 63.675 116.429 63.665 116.449 63.648C116.691 63.179 117.01 62.753 117.39 62.388C117.753 62.064 118.22 61.878 118.707 61.865C119.008 61.857 119.303 61.949 119.546 62.126C119.546 62.126 119.847 62.359 119.773 62.395C119.255 62.54 118.79 62.832 118.435 63.237C117.916 63.844 117.902 63.998 117.87 64.137C117.837 64.278 117.848 64.337 117.999 64.438C118.816 64.965 118.915 65.409 118.958 65.694C119.006 66.014 118.809 66.461 118.547 66.127C118.2 65.677 117.726 65.343 117.186 65.168C116.43 64.869 115.625 64.71 114.813 64.696C114.061 64.706 113.314 64.831 112.6 65.067C111.641 65.359 110.737 65.808 109.925 66.397C109.809 66.487 109.69 66.573 109.569 66.662C109.318 66.849 109.077 67.05 108.846 67.263C108.746 67.363 108.917 67.419 108.995 67.462C109.935 67.878 109.96 68.507 109.714 68.792C109.502 69.009 109.172 69.057 108.906 68.907C108.193 68.451 108.328 68.053 108.015 68.151C107.797 68.217 107.581 68.751 107.414 68.94C107.165 69.252 106.716 69.312 106.393 69.078C106.045 68.804 105.977 68.305 106.239 67.948C106.415 67.78 106.6 67.624 106.795 67.479C106.754 67.451 106.284 67.149 106.095 66.989C105.788 66.684 105.787 66.189 106.091 65.884C106.107 65.868 106.122 65.853 106.14 65.839C106.517 65.564 107.046 65.646 107.322 66.023C107.324 66.027 107.328 66.03 107.33 66.033C107.33 66.033 107.669 66.497 107.695 66.527C107.722 66.556 107.758 66.551 107.796 66.519C107.932 66.402 108.647 65.853 108.695 65.818C108.719 65.801 108.727 65.771 108.713 65.746Z" fill="black"/>
<path d="M113.066 39.27C112.96 39.29 112.851 39.29 112.745 39.27C112.637 39.249 112.541 39.187 112.478 39.097C112.41 39.02 112.361 38.928 112.336 38.829C112.336 38.765 112.396 38.711 112.444 38.671C112.608 38.551 112.746 38.402 112.852 38.23C112.936 38.073 112.981 37.898 112.985 37.72C112.985 37.689 112.922 37.673 112.899 37.694C112.79 37.8 112.719 37.956 112.591 38.039C112.474 38.119 112.333 38.159 112.192 38.152C112.094 38.144 112.003 38.1 111.936 38.028C111.875 37.947 111.829 37.855 111.801 37.756C111.77 37.672 111.901 37.609 111.989 37.591C112.175 37.578 112.356 37.523 112.518 37.431C112.623 37.368 112.707 37.276 112.76 37.166C112.79 37.078 112.807 36.985 112.809 36.892C112.809 36.85 112.832 36.825 112.791 36.838C112.691 36.87 112.624 36.929 112.538 36.953C112.379 37.008 112.203 36.997 112.053 36.923C111.901 36.813 111.777 36.669 111.688 36.504C111.668 36.473 111.688 36.409 111.723 36.404C111.873 36.373 112.007 36.204 112.122 36.004C112.147 35.963 112.168 35.92 112.185 35.875C112.207 35.817 112.277 35.757 112.286 35.729C112.314 35.61 112.324 35.489 112.316 35.367C112.302 35.264 112.253 35.169 112.175 35.099C112.154 35.075 112.075 35.071 112.056 35.099C111.988 35.224 112.029 35.386 111.955 35.508C111.872 35.637 111.765 35.749 111.642 35.839C111.579 35.886 111.492 35.951 111.421 35.918C111.302 35.858 111.216 35.748 111.187 35.618C111.169 35.465 111.203 35.31 111.281 35.177C111.422 34.899 111.59 34.634 111.781 34.388C111.923 34.207 112.072 34.088 112.201 33.888C112.29 33.756 112.357 33.477 112.238 33.433C112.12 33.389 112.05 33.665 111.945 33.726C111.534 33.88 111.146 34.091 110.795 34.353C110.632 34.568 110.514 34.814 110.45 35.077C110.396 35.218 110.433 35.432 110.373 35.569C110.35 35.621 110.241 35.669 110.197 35.638C110.064 35.515 109.967 35.36 109.914 35.187C109.885 35.069 109.893 34.944 109.937 34.831C109.956 34.784 109.919 34.741 109.884 34.762C109.724 34.852 109.601 34.998 109.539 35.172C109.469 35.407 109.489 35.659 109.597 35.879C109.793 36.208 110.01 36.524 110.245 36.826C110.416 37.114 110.636 37.419 110.787 37.694C110.942 37.924 111.007 38.205 110.965 38.48C110.902 38.765 110.755 39.024 110.545 39.226C110.519 39.243 110.459 39.273 110.435 39.253C110.214 39.046 109.985 38.852 109.745 38.67C109.452 38.484 109.128 38.354 108.788 38.286C108.365 38.239 107.939 38.236 107.517 38.276C107.072 38.289 106.627 38.354 106.183 38.339C105.822 38.355 105.46 38.307 105.116 38.197C104.857 38.099 104.642 37.913 104.508 37.672C104.385 37.417 104.338 37.13 104.373 36.849C104.391 36.619 104.459 36.396 104.573 36.196C104.667 36.017 104.81 35.87 104.986 35.771C105.185 35.663 105.418 35.63 105.638 35.681C105.747 35.729 105.849 35.794 105.939 35.874C106.029 35.947 106.111 36.029 106.187 36.117C106.197 36.13 106.256 36.117 106.259 36.101C106.291 35.801 106.248 35.498 106.134 35.219C106.023 35.003 105.892 34.798 105.742 34.607C105.727 34.56 105.868 34.564 105.917 34.56C106.157 34.547 106.395 34.618 106.588 34.76C106.721 34.851 106.833 34.969 106.917 35.107C106.927 35.121 106.964 35.107 106.964 35.091C106.985 34.727 106.862 34.369 106.621 34.096C106.513 33.939 106.368 33.811 106.198 33.725C106.098 33.689 106.272 33.61 106.36 33.609C106.551 33.59 106.743 33.619 106.921 33.692C106.985 33.722 107.042 33.765 107.091 33.816C107.128 33.85 107.167 33.879 107.208 33.906C107.241 33.925 107.274 33.866 107.263 33.829C107.242 33.722 107.199 33.62 107.138 33.529C106.856 33.25 106.555 32.991 106.238 32.754C106.203 32.733 106.169 32.707 106.138 32.679C106.05 32.557 105.983 32.422 105.937 32.279C105.918 32.224 105.837 32.172 105.806 32.095C105.785 32.018 105.794 31.936 105.83 31.865C105.922 31.691 106.009 31.66 106.201 31.574C106.348 31.527 106.501 31.495 106.655 31.48C106.702 31.472 106.75 31.526 106.796 31.511C106.822 31.503 106.835 31.436 106.761 31.381C106.579 31.252 106.361 31.182 106.138 31.181C105.842 31.131 105.539 31.154 105.254 31.246C105.043 31.363 104.808 31.432 104.567 31.446C104.41 31.454 104.254 31.423 104.112 31.356C104.01 31.307 103.936 31.214 103.912 31.104C103.905 30.922 103.948 30.743 104.037 30.584C104.108 30.469 104.213 30.379 104.337 30.326C104.42 30.283 104.478 30.25 104.472 30.192C104.466 30.134 104.349 30.16 104.306 30.176C104.04 30.234 103.786 30.333 103.552 30.47C103.381 30.626 103.228 30.802 103.096 30.993C103.066 31.028 103.028 31.055 102.986 31.072C102.935 31.094 102.886 31.081 102.829 31.102C102.64 31.174 102.447 31.27 102.264 31.356C102.081 31.442 101.934 31.589 101.746 31.656C101.6 31.701 101.449 31.725 101.296 31.728H101.282C100.982 31.7 100.582 31.703 100.51 32.064C100.491 32.138 100.524 32.215 100.59 32.253C100.642 32.286 100.698 32.313 100.757 32.333L100.943 32.4C100.986 32.411 101.026 32.433 101.056 32.466L101.065 32.481L101.071 32.498V32.516C101.071 32.521 101.071 32.527 101.071 32.533C101.05 32.586 100.999 32.622 100.941 32.625C100.777 32.662 100.606 32.639 100.457 32.562L100.423 32.545C100.356 32.503 100.269 32.517 100.217 32.576C99.89 32.842 99.55 33.092 99.198 33.324C99.161 33.346 99.127 33.374 99.098 33.406C99.079 33.428 99.066 33.455 99.06 33.483C99.057 33.506 99.057 33.53 99.06 33.554C99.073 33.635 98.978 33.672 98.915 33.691C98.841 33.71 98.788 33.775 98.784 33.851C98.779 33.91 98.783 33.969 98.796 34.027C98.814 34.14 98.919 34.217 99.031 34.2C99.054 34.197 99.076 34.189 99.096 34.179C99.184 34.145 99.271 34.116 99.361 34.09C99.41 34.071 99.465 34.08 99.505 34.113C99.511 34.119 99.517 34.126 99.521 34.133L99.528 34.148V34.164C99.53 34.19 99.525 34.217 99.513 34.24C99.479 34.298 99.44 34.352 99.398 34.404C99.356 34.465 99.324 34.553 99.398 34.604C99.522 34.704 99.701 34.695 99.815 34.584C99.872 34.525 99.918 34.458 99.951 34.384C99.985 34.307 100.046 34.245 100.123 34.21C100.273 34.146 100.435 34.111 100.598 34.11H100.607C100.722 34.105 100.836 34.135 100.933 34.195C100.963 34.212 100.987 34.238 101.001 34.27L101.008 34.292V34.315C101.008 34.32 101.008 34.326 101.008 34.331V34.341C100.979 34.452 100.933 34.558 100.871 34.655C100.841 34.723 100.825 34.812 100.793 34.9C100.761 34.988 100.713 35.078 100.687 35.148C100.661 35.218 100.646 35.224 100.587 35.275C100.445 35.394 100.247 35.514 100.109 35.637C99.86 35.871 99.642 36.137 99.46 36.427C99.405 36.519 99.364 36.618 99.338 36.722V36.731C99.287 36.984 99.238 37.289 98.938 37.12C98.651 36.962 98.375 36.787 98.111 36.594C98.014 36.519 97.929 36.428 97.86 36.325C97.598 35.944 97.275 36.282 97.103 36.559C96.829 36.987 96.528 37.398 96.203 37.789C96.151 37.852 96.108 37.922 96.077 37.997C96.034 38.103 95.972 38.201 95.895 38.286C95.803 38.406 95.757 38.554 95.766 38.705C95.773 38.964 95.692 39.217 95.537 39.425C95.423 39.544 95.358 39.701 95.354 39.865C95.354 40.008 95.354 40.15 95.362 40.293C95.369 40.399 95.409 40.493 95.531 40.486C95.559 40.482 95.586 40.474 95.612 40.463C95.831 40.38 96.036 40.264 96.222 40.121C96.249 40.099 96.274 40.076 96.298 40.05C96.357 39.992 96.372 39.903 96.336 39.828C96.326 39.808 96.313 39.789 96.297 39.773C96.285 39.76 96.271 39.747 96.257 39.735C96.211 39.704 96.175 39.659 96.157 39.606C96.154 39.594 96.152 39.582 96.15 39.57C96.145 39.522 96.149 39.472 96.16 39.425C96.176 39.362 96.188 39.299 96.196 39.235C96.201 39.16 96.238 39.089 96.296 39.041C96.396 38.958 96.496 38.88 96.596 38.799C96.742 38.679 96.791 38.479 96.719 38.305C96.707 38.273 96.698 38.239 96.694 38.205C96.693 38.187 96.693 38.17 96.694 38.153C96.709 38.075 96.743 38.001 96.794 37.94C96.86 37.845 96.926 37.752 96.994 37.658C97.087 37.502 97.238 37.389 97.413 37.343C97.635 37.316 97.858 37.389 98.021 37.543C98.197 37.766 98.316 38.028 98.37 38.307C98.433 38.535 98.527 38.752 98.649 38.955C98.729 39.109 98.918 39.17 99.072 39.091C99.095 39.079 99.117 39.064 99.136 39.047L99.165 39.03C99.175 39.024 99.186 39.019 99.196 39.015C99.26 38.997 99.329 39.026 99.362 39.085C99.445 39.185 99.535 39.279 99.632 39.366C99.746 39.436 99.649 39.524 99.554 39.523C99.476 39.523 99.398 39.523 99.32 39.518C99.252 39.515 99.184 39.526 99.12 39.551C98.654 39.697 98.169 39.773 97.681 39.774C97.649 39.774 97.618 39.777 97.587 39.783C97.529 39.794 97.479 39.831 97.452 39.883C97.444 39.9 97.436 39.918 97.43 39.936C97.412 39.982 97.395 40.029 97.379 40.075C97.335 40.185 97.333 40.307 97.374 40.418C97.57 41.084 97.62 41.784 97.52 42.47C97.469 42.716 97.529 42.972 97.684 43.17C97.744 43.24 97.823 43.291 97.912 43.316C97.949 43.327 97.982 43.345 98.012 43.369C98.074 43.441 98.106 43.534 98.104 43.629C98.115 43.763 98.169 43.89 98.26 43.99C98.382 44.144 98.534 44.271 98.708 44.363C98.727 44.372 98.747 44.379 98.766 44.386C98.86 44.428 98.97 44.386 99.012 44.292C99.012 44.292 99.012 44.292 99.012 44.291C99.116 44.07 99.167 43.827 99.16 43.582C99.155 43.466 99.073 43.369 98.96 43.344C98.949 43.339 98.938 43.336 98.926 43.335C98.884 43.333 98.844 43.348 98.813 43.375L98.801 43.382C98.781 43.393 98.76 43.401 98.739 43.406H98.706C98.695 43.407 98.684 43.407 98.673 43.406C98.662 43.405 98.651 43.402 98.641 43.398C98.631 43.394 98.62 43.389 98.611 43.383C98.55 43.342 98.504 43.283 98.476 43.215C98.419 43.078 98.411 42.926 98.451 42.783C98.462 42.742 98.471 42.7 98.479 42.658C98.495 42.593 98.498 42.525 98.487 42.458C98.48 42.389 98.463 42.321 98.434 42.258C98.383 42.147 98.368 42.105 98.275 42.073L98.244 42.061C98.202 42.046 98.162 42.024 98.127 41.997C98.121 41.991 98.115 41.984 98.11 41.977C98.093 41.947 98.089 41.91 98.1 41.877C98.151 41.555 98.162 41.227 98.133 40.902C98.133 40.795 98.11 40.683 98.2 40.602C98.424 40.414 98.8 40.564 99.034 40.652C99.34 40.76 99.656 40.841 99.976 40.895H99.984C100.506 40.945 101.029 40.803 101.453 40.495C101.493 40.461 101.498 40.451 101.542 40.478C101.713 40.578 101.818 40.696 101.989 40.804C102.374 41.056 102.794 41.249 103.237 41.376C103.833 41.433 104.432 41.428 105.026 41.36C105.176 41.37 105.324 41.402 105.465 41.454C105.498 41.465 105.52 41.497 105.518 41.533C105.502 41.752 105.417 41.959 105.417 42.179C105.432 42.297 105.475 42.41 105.542 42.51C105.594 42.61 105.629 42.75 105.691 42.845L105.753 42.96C106.1 43.386 106.107 43.994 105.774 44.43C105.549 44.647 105.307 44.845 105.051 45.022C104.807 45.206 104.517 45.318 104.213 45.346C104.012 45.356 103.819 45.437 103.672 45.575C103.504 45.751 103.312 45.902 103.1 46.023C103.013 46.056 102.945 46.127 102.918 46.217C102.815 46.461 102.739 46.716 102.693 46.976C102.661 47.126 102.771 47.176 102.902 47.158C103.125 47.126 103.342 47.067 103.551 46.983C103.663 46.949 103.726 46.83 103.692 46.718C103.687 46.702 103.68 46.688 103.672 46.674L103.602 46.484C103.595 46.466 103.59 46.447 103.587 46.427C103.586 46.419 103.586 46.411 103.587 46.404V46.382C103.595 46.36 103.606 46.34 103.621 46.321C103.658 46.276 103.701 46.238 103.751 46.207C103.811 46.165 103.885 46.146 103.957 46.154C104.005 46.163 104.053 46.175 104.098 46.188C104.368 46.283 104.666 46.175 104.813 45.93C104.833 45.9 104.85 45.87 104.869 45.84C104.921 45.753 104.988 45.676 105.069 45.615C105.635 45.25 106.243 44.951 106.878 44.724C106.935 44.71 106.982 44.669 107.001 44.615C107.013 44.537 107.009 44.458 106.989 44.381C106.965 44.157 106.96 43.93 106.977 43.705C106.983 43.549 107.039 43.269 107.241 43.264C107.323 43.275 107.395 43.322 107.44 43.391C107.643 43.65 107.917 43.845 108.227 43.953C108.319 43.985 108.411 44.019 108.5 44.059C108.742 44.168 108.912 44.392 108.953 44.654C108.981 44.797 108.949 44.946 108.863 45.063C108.644 45.347 108.44 45.642 108.252 45.947C108.155 46.106 108.025 46.242 107.872 46.347C107.636 46.506 107.409 46.679 107.193 46.864C107.017 46.979 106.872 47.133 106.767 47.313C106.646 47.621 106.542 47.935 106.454 48.253C106.403 48.437 106.516 48.479 106.678 48.443C106.92 48.381 107.153 48.288 107.37 48.164C107.403 48.145 107.433 48.122 107.459 48.093C107.49 48.056 107.506 48.009 107.504 47.96C107.494 47.876 107.459 47.797 107.404 47.732C107.325 47.647 107.314 47.519 107.377 47.421C107.41 47.372 107.461 47.337 107.518 47.321C107.692 47.267 107.868 47.221 108.044 47.174C108.275 47.141 108.488 47.034 108.653 46.868C108.685 46.828 108.709 46.782 108.72 46.732V46.719L108.728 46.678C108.937 45.961 109.418 45.355 110.068 44.989C110.149 44.943 110.201 44.86 110.208 44.767C110.225 44.677 110.214 44.585 110.18 44.501L109.69 43.741C109.545 43.545 109.452 43.316 109.419 43.074C109.424 42.818 109.488 42.567 109.606 42.34C109.651 42.276 109.69 42.209 109.727 42.14C109.813 41.95 109.981 41.884 110.11 41.711C110.246 41.545 110.368 41.369 110.477 41.184C110.585 40.942 110.673 40.692 110.739 40.435C110.802 40.24 110.704 40.024 110.723 39.821C110.735 39.746 110.768 39.675 110.817 39.616C110.901 39.496 111.02 39.404 111.158 39.352C111.302 39.317 111.451 39.327 111.589 39.379C111.845 39.453 112.015 39.552 112.275 39.613C112.412 39.64 112.552 39.632 112.685 39.588C112.827 39.551 112.956 39.476 113.058 39.371C113.1 39.344 113.105 39.267 113.066 39.27ZM104.118 35.122C104.117 35.318 104.014 35.499 103.846 35.6C103.762 35.64 103.671 35.659 103.579 35.656C103.479 35.656 103.443 35.502 103.435 35.276C103.435 35.121 103.435 35.07 103.435 35.019C103.435 34.911 103.44 34.812 103.449 34.705C103.455 34.631 103.455 34.555 103.457 34.482C103.459 34.409 103.457 34.309 103.457 34.222C103.448 34.035 103.457 33.845 103.429 33.66C103.395 33.433 103.341 33.209 103.268 32.992C103.226 32.858 103.177 32.726 103.121 32.598C103.095 32.537 103.045 32.467 103.016 32.408C102.988 32.352 102.95 32.302 102.904 32.26C102.836 32.197 102.74 32.168 102.68 32.098C102.659 32.073 102.68 32.039 102.708 32.021C102.969 31.882 103.289 31.922 103.508 32.121C103.862 32.407 104.078 32.828 104.108 33.281C104.199 33.892 104.202 34.512 104.118 35.122Z" fill="black"/>
<path d="M76.9179 47.831H95.1179C93.4229 46.002 92.4679 43.609 92.4369 41.116V40.828H75.8179C75.9159 43.197 76.2839 45.546 76.9139 47.832L76.9179 47.831Z" fill="black"/>
<path d="M103.229 56.613H80.6001C81.2001 57.697 81.8491 58.773 82.5471 59.843C83.4211 61.167 84.3811 62.431 85.4221 63.627H103.227L103.229 56.613Z" fill="black"/>
<path d="M132.412 25.224H115.712V26.6V29.611V31.388H132.301C132.328 29.379 132.369 27.293 132.408 25.226L132.412 25.224Z" fill="black"/>
<path d="M132.6 14.843C132.586 14.835 132.571 14.827 132.555 14.822C129.573 13.619 126.514 12.617 123.397 11.822C119.102 10.777 114.731 10.068 110.325 9.70105C108.231 9.51505 106.337 9.44804 104.246 9.42004V16.278H132.576C132.582 15.79 132.591 15.312 132.6 14.845V14.843V14.843Z" fill="black"/>
<path d="M108.064 51.15C107.349 51.423 106.607 51.619 105.849 51.732C105.87 51.795 105.894 51.856 105.92 51.915C105.982 52.082 106.142 52.193 106.319 52.189C106.565 52.225 106.746 52.054 106.928 51.65C106.953 51.617 107.059 51.572 107.082 51.611C107.273 51.925 107.714 52.211 108.014 52.053C108.25 51.908 108.325 51.601 108.18 51.365C108.174 51.355 108.167 51.345 108.16 51.335L108.064 51.15Z" fill="black"/>
</svg>
