<svg width="174" height="30" viewBox="0 0 174 30" fill="none" xmlns="http://www.w3.org/2000/svg">
<g clip-path="url(#clip0_22_71)">
<path d="M0.635742 15.2073H1.33423C1.41125 14.7314 1.64437 14.4728 1.99376 14.4728C2.90457 14.4728 3.50641 15.3798 5.83206 15.3798C8.19842 15.3798 9.90495 13.6086 9.90495 11.2973C9.90495 6.13554 3.07941 6.04914 3.07941 3.0458C3.07941 2.0527 3.6218 0.994279 5.09609 0.994279C6.87993 0.994279 8.23737 2.54998 8.78005 4.66594H9.28436V0H8.78005C8.68311 0.454235 8.45028 0.777852 8.08244 0.777852C7.21058 0.777852 6.51239 0 4.5332 0C2.51653 0 0.752303 1.72849 0.752303 3.75835C0.752303 7.94984 7.579 8.57658 7.579 11.9451C7.579 13.0905 6.97717 14.3864 5.31017 14.3864C3.37052 14.3864 1.70265 12.3554 1.14035 10.4123H0.635742V15.2073Z" fill="black"/>
<path d="M14.4474 15.034H20.8088V14.472C19.3148 14.4087 18.9473 14.2342 18.9473 12.7022V1.42569H20.5762C22.1073 1.42569 22.7086 2.11715 23.1356 4.10425H23.7166L23.4065 0.346191H11.8482L11.5381 4.10454H12.1206C12.5464 2.11744 13.1474 1.42599 14.6805 1.42599H16.3089V12.7022C16.3089 14.2342 15.941 14.409 14.4474 14.472V15.034Z" fill="black"/>
<path d="M36.1386 15.034L37.0304 11.1032H36.5261C35.4006 13.6953 34.006 14.1698 31.6393 14.1698C29.3122 14.1698 29.0797 13.8675 29.0797 12.9822V7.90594H31.328C33.0348 7.90594 33.8112 8.3385 34.0821 10.0667H34.5861V4.8818H34.0821C33.8299 6.41613 33.3842 6.82614 31.328 6.82614H29.0797V2.18187C29.0797 1.57711 29.2147 1.42569 29.8156 1.42569H31.8139C34.3922 1.42569 34.896 1.94465 35.3628 3.58646H35.9049L35.8285 0.346191H24.8135V0.908201C26.074 0.97146 26.4418 1.14542 26.4418 2.67799V12.7022C26.4418 14.2342 26.074 14.409 24.8135 14.472V15.034H36.1386Z" fill="black"/>
<path d="M42.7612 2.67884C42.7612 1.14481 43.129 0.972021 44.6997 0.907591V0.345581H38.1846V0.907591C39.7546 0.972021 40.1245 1.14481 40.1245 2.67884V12.7016C40.1245 14.2347 39.7549 14.4084 38.1846 14.4728V15.0349H44.6997V14.4728C43.1293 14.4084 42.7612 14.2347 42.7612 12.7016V2.67884Z" fill="black"/>
<path d="M53.9938 7.38776V7.94977C55.4478 8.01449 55.8169 8.18699 55.8169 9.72102V12.9174C55.8169 13.8671 55.3901 14.387 53.2768 14.387C50.1162 14.387 48.5251 11.2539 48.5251 7.56026C48.5251 4.73059 49.8822 0.993914 52.9857 0.993914C55.2932 0.993914 56.6697 2.63543 57.4461 4.90338H58.0265L57.7559 0.00109863H57.0964C56.7851 0.626367 56.6694 0.865346 56.2822 0.865346C55.9914 0.865346 54.0321 0.00109863 52.6548 0.00109863C48.0591 0.00109863 45.6934 4.21368 45.6934 7.56055C45.6934 12.2476 48.369 15.3801 53.4113 15.3801C55.3899 15.3801 57.2908 14.7756 58.4538 14.0191V9.72102C58.4538 8.18699 58.8225 8.01449 59.9665 7.94977V7.38776H53.9938V7.38776Z" fill="black"/>
<path d="M72.2647 15.034L73.157 11.1032H72.6524C71.5269 13.6953 70.132 14.1698 67.766 14.1698C65.438 14.1698 65.2063 13.8675 65.2063 12.9822V7.90594H67.4546C69.1615 7.90594 69.9379 8.3385 70.2085 10.0667H70.7128V4.8818H70.2085C69.9563 6.41613 69.5103 6.82614 67.4546 6.82614H65.2063V2.18187C65.2063 1.57711 65.341 1.42569 65.9423 1.42569H67.9399C70.5192 1.42569 71.0229 1.94465 71.4898 3.58646H72.0316L71.9545 0.346191H60.9404V0.908201C62.2009 0.97146 62.5691 1.14542 62.5691 2.67799V12.7022C62.5691 14.2342 62.2012 14.409 60.9404 14.472V15.034H72.2647Z" fill="black"/>
<path d="M85.8301 10.455L77.9772 0.346191H74.3887V0.908201C75.204 1.12404 75.7271 1.53347 76.1731 2.39772V12.2907C76.1731 13.717 75.8243 14.2995 74.3887 14.4735V15.0343H79.0435V14.4735C77.6073 14.2995 77.2585 13.717 77.2585 12.2907V3.8023L86.2562 15.3802H86.9169V3.08976C86.9169 1.66321 87.2648 1.08099 88.7002 0.908494V0.346191H84.0471V0.908201C85.4813 1.0807 85.8301 1.66321 85.8301 3.08947V10.455Z" fill="black"/>
<path d="M94.5994 2.20355C94.5994 1.49071 94.9673 1.21044 95.6452 1.21044C97.5849 1.21044 98.5546 2.41939 98.5546 4.01814C98.5546 6.13439 97.4303 7.1275 94.5994 7.1275V2.20355V2.20355ZM94.5994 7.99204C97.6042 7.92702 99.1948 8.92072 99.1746 10.9737C99.1558 12.593 98.0312 14.17 95.9756 14.17C94.8706 14.17 94.5994 13.825 94.5994 13.2414V7.99204ZM96.7321 15.034C100.222 15.034 101.891 13.3491 101.891 10.9734C101.891 8.72625 99.9709 7.75482 98.264 7.38815V7.3451C99.8739 7.04169 101.192 5.83245 101.192 3.97509C101.192 1.59849 99.1743 0.346191 95.9961 0.346191H90.1777V0.908201C91.5934 0.97146 91.9616 1.14542 91.9616 2.67799V12.7022C91.9616 14.2342 91.5934 14.409 90.1777 14.472V15.034H96.7321V15.034Z" fill="black"/>
<path d="M114.758 15.034L115.65 11.1032H115.147C114.022 13.6953 112.626 14.1698 110.26 14.1698C107.932 14.1698 107.7 13.8675 107.7 12.9822V7.90594H109.948C111.655 7.90594 112.431 8.3385 112.702 10.0667H113.206V4.8818H112.702C112.451 6.41613 112.005 6.82614 109.948 6.82614H107.7V2.18187C107.7 1.57711 107.834 1.42569 108.436 1.42569H110.434C113.013 1.42569 113.516 1.94465 113.981 3.58646H114.524L114.448 0.346191H103.433V0.908201C104.693 0.97146 105.061 1.14542 105.061 2.67799V12.7022C105.061 14.2342 104.693 14.409 103.433 14.472V15.034H114.758Z" fill="black"/>
<path d="M121.42 1.98766C121.42 1.42565 121.633 1.2098 122.546 1.2098C124.135 1.2098 125.725 2.16015 125.725 4.34142C125.725 6.7394 124.019 7.6467 121.42 7.68975V1.98766V1.98766ZM121.42 8.554H122.273L126.792 15.034H130.496V14.4734C129.758 14.5378 129.409 14.2128 128.944 13.5875L125.181 8.25206C127.082 7.71172 128.439 6.54523 128.439 4.1903C128.439 1.77211 126.888 0.346436 122.642 0.346436H116.959V0.908445C118.413 0.973168 118.783 1.14567 118.783 2.6797V12.7024C118.783 14.2344 118.413 14.4087 116.959 14.4737V15.0345H123.281V14.4734C121.789 14.4081 121.42 14.2344 121.42 12.7022V8.554V8.554Z" fill="black"/>
<path d="M139.071 7.38776V7.94977C140.526 8.01449 140.894 8.18699 140.894 9.72102V12.9174C140.894 13.8671 140.468 14.387 138.354 14.387C135.193 14.387 133.602 11.2539 133.602 7.56026C133.602 4.73059 134.96 0.993914 138.063 0.993914C140.371 0.993914 141.747 2.63543 142.523 4.90338H143.104L142.832 0.00109863H142.174C141.863 0.626367 141.747 0.865346 141.358 0.865346C141.067 0.865346 139.11 0.00109863 137.732 0.00109863C133.137 0.00109863 130.771 4.21368 130.771 7.56055C130.771 12.2476 133.446 15.3801 138.489 15.3801C140.466 15.3801 142.366 14.7756 143.53 14.0191V9.72102C143.53 8.18699 143.898 8.01449 145.042 7.94977V7.38776H139.071V7.38776Z" fill="black"/>
<path d="M157.537 15.034L158.428 11.1032H157.923C156.799 13.6953 155.404 14.1698 153.036 14.1698C150.711 14.1698 150.477 13.8675 150.477 12.9822V7.90594H152.727C154.434 7.90594 155.209 8.3385 155.48 10.0667H155.985V4.8818H155.48C155.229 6.41613 154.782 6.82614 152.727 6.82614H150.477V2.18187C150.477 1.57711 150.613 1.42569 151.214 1.42569H153.212C155.791 1.42569 156.295 1.94465 156.76 3.58646H157.303L157.225 0.346191H146.211V0.908201C147.473 0.97146 147.84 1.14542 147.84 2.67799V12.7022C147.84 14.2342 147.472 14.409 146.211 14.472V15.034H157.537Z" fill="black"/>
<path d="M164.004 1.98766C164.004 1.42565 164.218 1.2098 165.13 1.2098C166.719 1.2098 168.309 2.16015 168.309 4.34142C168.309 6.7394 166.603 7.6467 164.004 7.68975V1.98766ZM164.004 8.554H164.857L169.376 15.034H173.08V14.4734C172.342 14.5378 171.994 14.2128 171.528 13.5875L167.766 8.25206C169.667 7.71172 171.024 6.54523 171.024 4.1903C171.024 1.77211 169.473 0.346436 165.226 0.346436H159.543V0.908445C160.999 0.973168 161.367 1.14567 161.367 2.6797V12.7024C161.367 14.2344 160.999 14.4087 159.543 14.4737V15.0345H165.865V14.4734C164.373 14.4081 164.004 14.2344 164.004 12.7022V8.554Z" fill="black"/>
<path d="M2.95566 26.295V28.57C2.95566 28.9458 2.97616 29.1804 3.01804 29.2741C3.05962 29.3678 3.14075 29.4501 3.2617 29.5207C3.38265 29.591 3.54607 29.6261 3.75196 29.6261H3.99592V29.8267H0.155273V29.6261H0.398938C0.612437 29.6261 0.783471 29.5883 0.913503 29.5122C1.00722 29.4618 1.07956 29.3751 1.13022 29.2521C1.16976 29.1654 1.18997 28.9379 1.18997 28.5694V23.7386C1.18997 23.3629 1.17005 23.1283 1.13022 23.0343C1.09039 22.9409 1.01015 22.8583 0.889195 22.788C0.768242 22.7174 0.604822 22.6825 0.398938 22.6825H0.155273V22.4819H3.99562V22.6825H3.75167C3.53817 22.6825 3.36713 22.7203 3.2371 22.7965C3.14309 22.8471 3.069 22.9338 3.01511 23.0565C2.97499 23.1432 2.95536 23.3708 2.95536 23.7392V25.8194H5.54957V23.7392C5.54957 23.3635 5.52995 23.1289 5.48982 23.0349C5.44999 22.9414 5.36916 22.8589 5.24616 22.7886C5.12345 22.718 4.95944 22.6831 4.75327 22.6831H4.51517V22.4825H8.35024V22.6831H8.11185C7.89542 22.6831 7.7238 22.7209 7.59729 22.7971C7.50328 22.8477 7.42947 22.9344 7.37529 23.0571C7.33546 23.1438 7.31555 23.3714 7.31555 23.7398V28.5715C7.31555 28.9472 7.33546 29.1818 7.37529 29.2755C7.41483 29.3696 7.49625 29.4516 7.61896 29.5221C7.74167 29.5924 7.90567 29.6276 8.11185 29.6276H8.35024V29.8282H4.51575V29.6276H4.75385C4.97057 29.6276 5.1419 29.5898 5.26842 29.5136C5.36213 29.4633 5.43623 29.3766 5.49041 29.2536C5.53053 29.1669 5.55015 28.9393 5.55015 28.5709V26.2959H2.95566V26.295Z" fill="black"/>
<path d="M15.554 22.3788C16.724 22.3354 17.6747 22.6766 18.4059 23.4026C19.1372 24.1287 19.5027 25.0368 19.5027 26.1272C19.5027 27.0588 19.2298 27.8782 18.685 28.5861C17.9628 29.525 16.9425 29.9948 15.6246 29.9948C14.3029 29.9948 13.2811 29.547 12.5589 28.6514C11.9884 27.9435 11.7031 27.1042 11.7031 26.1324C11.7031 25.0418 12.0742 24.1328 12.8163 23.405C13.5578 22.6778 14.4704 22.3354 15.554 22.3788ZM15.6187 22.7255C14.9472 22.7255 14.4364 23.0688 14.0862 23.7547C13.8006 24.3184 13.6583 25.1273 13.6583 26.1814C13.6583 27.4345 13.8785 28.3606 14.3193 28.9601C14.6262 29.3792 15.0559 29.5886 15.6085 29.5886C15.9804 29.5886 16.2906 29.4981 16.5401 29.3174C16.8579 29.0863 17.1053 28.717 17.2822 28.21C17.4591 27.7028 17.5473 27.0409 17.5473 26.225C17.5473 25.2536 17.4571 24.527 17.2764 24.0449C17.0957 23.5628 16.8658 23.2225 16.5861 23.0243C16.3061 22.8248 15.9837 22.7255 15.6187 22.7255Z" fill="black"/>
<path d="M29.614 22.4819V24.4699H29.4189C29.3033 24.0113 29.1753 23.6818 29.0344 23.4815C28.8935 23.2811 28.7 23.1215 28.4548 23.002C28.3175 22.9367 28.0773 22.9045 27.7344 22.9045H27.1873V28.5703C27.1873 28.946 27.2081 29.1806 27.25 29.2743C27.2916 29.3681 27.3727 29.4504 27.4939 29.5209C27.6146 29.5912 27.7801 29.6264 27.9892 29.6264H28.2331V29.827H24.3869V29.6264H24.6309C24.8441 29.6264 25.0154 29.5886 25.1454 29.5124C25.2395 29.4621 25.3135 29.3754 25.3674 29.2524C25.4076 29.1657 25.4272 28.9381 25.4272 28.5697V22.9042H24.8962C24.4016 22.9042 24.0419 23.0088 23.8179 23.2185C23.5039 23.5107 23.3051 23.9281 23.2222 24.4693H23.0166V22.4813L29.614 22.4819Z" fill="black"/>
<path d="M35.7552 22.9042V25.894H35.9016C36.3673 25.894 36.7046 25.7476 36.9143 25.4553C37.1237 25.1628 37.2573 24.7311 37.315 24.1609H37.5209V28.0068H37.315C37.2719 27.588 37.1805 27.2444 37.0414 26.9776C36.9023 26.7105 36.741 26.5307 36.5567 26.4385C36.3725 26.3468 36.1051 26.3002 35.7555 26.3002V28.3693C35.7555 28.7738 35.7727 29.0213 35.807 29.1112C35.8413 29.202 35.9054 29.2758 35.9994 29.3335C36.0928 29.3909 36.2448 29.4201 36.4545 29.4201H36.8932C37.5791 29.4201 38.1291 29.2614 38.5427 28.9437C38.9562 28.6259 39.2532 28.1421 39.4336 27.4919H39.6342L39.3035 29.8266H32.9551V29.626H33.199C33.4122 29.626 33.5836 29.5882 33.7136 29.5121C33.8073 29.4617 33.8797 29.375 33.9303 29.252C33.9701 29.1654 33.9901 28.9378 33.9901 28.5694V23.7385C33.9901 23.4064 33.981 23.2023 33.9628 23.1265C33.9268 23.0002 33.8597 22.9027 33.7622 22.8339C33.6249 22.7328 33.4374 22.6822 33.199 22.6822H32.9551V22.4816H39.1029V24.6538H38.897C38.7925 24.1228 38.6452 23.7421 38.4557 23.5113C38.2662 23.2802 37.9979 23.1104 37.6512 23.002C37.4488 22.9367 37.0698 22.9045 36.5137 22.9045L35.7552 22.9042Z" fill="black"/>
<path d="M49.8537 27.2486L49.5775 29.827H43.0557V29.6264H43.2996C43.5128 29.6264 43.6842 29.5886 43.8142 29.5125C43.9082 29.4621 43.9802 29.3754 44.0309 29.2524C44.0704 29.1657 44.0904 28.9382 44.0904 28.5697V23.7386C44.0904 23.3629 44.0704 23.1283 44.0309 23.0343C43.9911 22.9409 43.9108 22.8583 43.7899 22.788C43.6689 22.7174 43.5055 22.6825 43.2996 22.6825H43.0557V22.4819H46.9722V22.6825H46.6526C46.4391 22.6825 46.2681 22.7203 46.1378 22.7965C46.0441 22.8471 45.9703 22.9338 45.9158 23.0565C45.876 23.1432 45.8563 23.3708 45.8563 23.7392V28.4192C45.8563 28.7944 45.878 29.0339 45.9217 29.1364C45.9647 29.2398 46.0499 29.3162 46.1762 29.3666C46.2664 29.3991 46.4848 29.4155 46.8313 29.4155H47.4434C47.8335 29.4155 48.1583 29.3473 48.4183 29.2096C48.6787 29.0723 48.903 28.8559 49.0931 28.5595C49.2823 28.2634 49.4624 27.8264 49.632 27.2486H49.8537V27.2486Z" fill="black"/>
<path d="M58.178 22.3138L58.2377 24.7621H58.0157C57.9109 24.1483 57.6537 23.6542 57.2437 23.2805C56.834 22.9068 56.3906 22.7197 55.9138 22.7197C55.5451 22.7197 55.2537 22.8181 55.039 23.0149C54.8241 23.2117 54.7163 23.4384 54.7163 23.6946C54.7163 23.8572 54.7544 24.0016 54.8302 24.1278C54.9345 24.2976 55.1029 24.4655 55.3339 24.6315C55.5038 24.7507 55.8954 24.9619 56.5095 25.2653C57.3691 25.6879 57.9484 26.0871 58.2485 26.4622C58.5446 26.838 58.6928 27.2676 58.6928 27.7514C58.6928 28.3653 58.4538 28.8933 57.975 29.3358C57.4965 29.7783 56.8891 29.9994 56.1522 29.9994C55.9208 29.9994 55.7027 29.976 55.4968 29.9292C55.2909 29.8823 55.0329 29.7939 54.7221 29.6641C54.5488 29.5918 54.4061 29.5558 54.2943 29.5558C54.2003 29.5558 54.101 29.5921 53.9961 29.6641C53.8916 29.7365 53.8069 29.8463 53.7419 29.9945H53.541V27.2207H53.7419C53.9007 28.0009 54.2067 28.5957 54.6601 29.0058C55.1131 29.4155 55.6016 29.6208 56.1253 29.6208C56.5297 29.6208 56.8516 29.5107 57.092 29.2904C57.3325 29.0702 57.4522 28.8139 57.4522 28.5214C57.4522 28.348 57.4063 28.1802 57.314 28.0176C57.2223 27.8548 57.0821 27.7007 56.894 27.5543C56.7057 27.4079 56.3742 27.2178 55.8974 26.9829C55.2294 26.6543 54.7491 26.3744 54.4568 26.1433C54.1642 25.9122 53.9393 25.6539 53.7823 25.3687C53.6251 25.0831 53.5466 24.7692 53.5466 24.4259C53.5466 23.8411 53.761 23.3429 54.1909 22.9311C54.6208 22.5194 55.162 22.3135 55.816 22.3135C56.0541 22.3135 56.2855 22.3428 56.5092 22.4002C56.6788 22.4435 56.8855 22.524 57.1295 22.6412C57.3732 22.7586 57.5439 22.8175 57.6414 22.8175C57.7354 22.8175 57.8092 22.7882 57.8634 22.7308C57.9179 22.6731 57.968 22.5337 58.0154 22.3135L58.178 22.3138Z" fill="black"/>
<path d="M71.9606 27.7358H69.3661L69.0574 28.4504C68.9558 28.6888 68.9054 28.8856 68.9054 29.0411C68.9054 29.247 68.9886 29.3987 69.155 29.496C69.2525 29.554 69.4923 29.5973 69.8754 29.626V29.8266H67.4326V29.626C67.6959 29.5862 67.9129 29.4769 68.0825 29.2983C68.2521 29.1193 68.4617 28.7503 68.711 28.1907L71.3383 22.3298H71.4414L74.09 28.3529C74.3428 28.9234 74.5504 29.2831 74.713 29.4312C74.8357 29.5431 75.0091 29.6081 75.2328 29.6263V29.8269H71.6792V29.6263H71.8256C72.1109 29.6263 72.3109 29.5865 72.4269 29.5071C72.5062 29.4494 72.5461 29.3662 72.5461 29.2576C72.5461 29.1926 72.5352 29.1261 72.5135 29.057C72.5062 29.0245 72.452 28.8891 72.351 28.6508L71.9606 27.7358ZM71.7764 27.3349L70.6823 24.8054L69.5556 27.3349H71.7764Z" fill="black"/>
<path d="M80.8365 22.4819L84.4604 27.0375V23.8792C84.4604 23.4387 84.3972 23.1409 84.2709 22.9851C84.0976 22.7757 83.807 22.6746 83.3988 22.682V22.4813H85.8255V22.682C85.5144 22.7218 85.3065 22.7733 85.1999 22.836C85.0933 22.899 85.0104 23.0021 84.9504 23.1447C84.8906 23.2873 84.861 23.5319 84.861 23.8789V29.9942H84.6768L79.7098 23.8789V28.5478C79.7098 28.9701 79.8065 29.2556 79.9995 29.4035C80.1925 29.552 80.4139 29.6258 80.6634 29.6258H80.8368V29.8264H78.2314V29.6258C78.6359 29.622 78.9176 29.5388 79.0767 29.3763C79.2354 29.2137 79.3148 28.9376 79.3148 28.5475V23.3638L79.1578 23.1687C79.0029 22.9737 78.8652 22.8457 78.7463 22.7842C78.6271 22.723 78.4555 22.6884 78.2317 22.6808V22.4805H80.8365V22.4819Z" fill="black"/>
<path d="M88.9492 29.8267V29.6261H89.1932C89.4064 29.6261 89.5695 29.5927 89.6834 29.5256C89.7974 29.4589 89.8811 29.3675 89.935 29.2521C89.9675 29.1763 89.9839 28.9487 89.9839 28.5694V23.7386C89.9839 23.3629 89.964 23.1283 89.9242 23.0343C89.8843 22.9409 89.8044 22.8583 89.6834 22.788C89.5622 22.7174 89.3988 22.6825 89.1932 22.6825H88.9492V22.4819H92.2372C93.1149 22.4819 93.8207 22.6011 94.3552 22.8395C95.0086 23.1321 95.5044 23.5746 95.8421 24.1665C96.1795 24.7587 96.3485 25.429 96.3485 26.1761C96.3485 26.6925 96.2659 27.1684 96.0992 27.6036C95.9326 28.0388 95.7182 28.3981 95.4546 28.6816C95.1916 28.9651 94.8871 29.1927 94.5421 29.364C94.1971 29.5356 93.7759 29.6683 93.2778 29.762C93.0575 29.805 92.7102 29.827 92.2372 29.827L88.9492 29.8267ZM91.7502 22.8987V28.6295C91.7502 28.9329 91.7645 29.1189 91.7929 29.1874C91.8219 29.2556 91.8708 29.3086 91.9394 29.3447C92.0369 29.3988 92.1775 29.4255 92.3617 29.4255C92.965 29.4255 93.4251 29.2196 93.7431 28.8084C94.1763 28.2523 94.393 27.3889 94.393 26.2189C94.393 25.2765 94.2448 24.5235 93.9487 23.9603C93.7138 23.5199 93.4125 23.2202 93.0441 23.0615C92.7843 22.9493 92.3529 22.8955 91.7502 22.8987Z" fill="black"/>
<path d="M107.971 26.4792V28.5372C107.971 28.9343 107.995 29.1844 108.044 29.2878C108.093 29.3909 108.178 29.4729 108.301 29.5344C108.424 29.5956 108.653 29.6263 108.989 29.6263V29.8269H105.23V29.6263C105.569 29.6263 105.799 29.595 105.92 29.5317C106.041 29.4685 106.126 29.3862 106.175 29.2851C106.224 29.1838 106.248 28.9349 106.248 28.5374V23.7711C106.248 23.3739 106.224 23.1238 106.175 23.0204C106.126 22.9174 106.04 22.8353 105.918 22.7738C105.795 22.7126 105.566 22.6822 105.229 22.6822V22.4816H108.642C109.53 22.4816 110.18 22.5428 110.592 22.6658C111.003 22.7885 111.339 23.0152 111.599 23.3455C111.859 23.6759 111.989 24.0633 111.989 24.5073C111.989 25.0494 111.794 25.4969 111.404 25.8507C111.154 26.075 110.806 26.2426 110.359 26.3547L112.124 28.8406C112.355 29.1624 112.52 29.3625 112.618 29.4421C112.766 29.554 112.937 29.6155 113.132 29.626V29.8266H110.819L108.452 26.4792H107.971V26.4792ZM107.971 22.8772V26.0944H108.279C108.781 26.0944 109.157 26.0484 109.406 25.9561C109.656 25.8639 109.852 25.6981 109.994 25.4577C110.136 25.2175 110.208 24.9042 110.208 24.5179C110.208 23.9582 110.077 23.5447 109.815 23.2776C109.553 23.0102 109.132 22.8769 108.55 22.8769L107.971 22.8772Z" fill="black"/>
<path d="M118.775 22.9042V25.894H118.921C119.387 25.894 119.725 25.7476 119.934 25.4553C120.144 25.163 120.277 24.7311 120.335 24.1609H120.541V28.0068H120.335C120.292 27.588 120.201 27.2444 120.062 26.9776C119.922 26.7105 119.761 26.5307 119.577 26.4385C119.393 26.3468 119.126 26.3002 118.775 26.3002V28.3693C118.775 28.7738 118.793 29.0213 118.827 29.1112C118.861 29.202 118.926 29.2758 119.019 29.3335C119.113 29.3909 119.265 29.4201 119.474 29.4201H119.913C120.599 29.4201 121.149 29.2614 121.563 28.9437C121.976 28.6259 122.273 28.1421 122.454 27.4919H122.654L122.324 29.8266H115.975V29.626H116.219C116.432 29.626 116.603 29.5882 116.733 29.5121C116.827 29.4617 116.899 29.375 116.95 29.252C116.99 29.1654 117.01 28.9378 117.01 28.5694V23.7385C117.01 23.4064 117.001 23.2023 116.982 23.1265C116.946 23.0002 116.879 22.9027 116.781 22.8339C116.644 22.7328 116.457 22.6822 116.218 22.6822H115.975V22.4816H122.122V24.6538H121.917C121.812 24.1228 121.665 23.7421 121.475 23.5113C121.285 23.2802 121.017 23.1104 120.671 23.002C120.469 22.9367 120.089 22.9045 119.533 22.9045L118.775 22.9042Z" fill="black"/>
<path d="M131.081 22.3138L131.14 24.7621H130.918C130.813 24.1483 130.556 23.6542 130.146 23.2805C129.736 22.9068 129.293 22.7197 128.816 22.7197C128.448 22.7197 128.156 22.8181 127.941 23.0149C127.727 23.2117 127.619 23.4384 127.619 23.6946C127.619 23.8572 127.657 24.0016 127.733 24.1278C127.837 24.2976 128.006 24.4655 128.237 24.6315C128.407 24.7507 128.798 24.9619 129.412 25.2653C130.272 25.6879 130.851 26.0871 131.151 26.4622C131.448 26.838 131.596 27.2676 131.596 27.7514C131.596 28.3653 131.357 28.8933 130.878 29.3358C130.399 29.7783 129.792 29.9994 129.055 29.9994C128.824 29.9994 128.606 29.976 128.4 29.9292C128.194 29.8823 127.936 29.7939 127.625 29.6641C127.452 29.5918 127.309 29.5558 127.197 29.5558C127.104 29.5558 127.005 29.5921 126.899 29.6641C126.795 29.7365 126.71 29.8463 126.645 29.9945H126.444V27.2207H126.645C126.804 28.0009 127.11 28.5957 127.563 29.0058C128.016 29.4158 128.505 29.6208 129.028 29.6208C129.433 29.6208 129.755 29.5107 129.995 29.2904C130.235 29.0702 130.355 28.8139 130.355 28.5214C130.355 28.348 130.309 28.1802 130.217 28.0176C130.125 27.8548 129.985 27.7007 129.797 27.5543C129.609 27.4079 129.277 27.2178 128.8 26.9829C128.132 26.6543 127.652 26.3744 127.36 26.1433C127.067 25.9122 126.842 25.6539 126.685 25.3687C126.528 25.0831 126.449 24.7692 126.449 24.4259C126.449 23.8411 126.664 23.3429 127.094 22.9311C127.524 22.5194 128.065 22.3135 128.719 22.3135C128.957 22.3135 129.188 22.3428 129.412 22.4002C129.582 22.4435 129.789 22.524 130.032 22.6412C130.276 22.7586 130.447 22.8175 130.544 22.8175C130.638 22.8175 130.712 22.7882 130.766 22.7308C130.82 22.6731 130.871 22.5337 130.918 22.3135L131.081 22.3138Z" fill="black"/>
<path d="M139.041 22.3788C140.211 22.3354 141.162 22.6766 141.893 23.4026C142.624 24.1287 142.99 25.0368 142.99 26.1272C142.99 27.0588 142.717 27.8782 142.172 28.5861C141.449 29.525 140.43 29.9948 139.112 29.9948C137.79 29.9948 136.768 29.547 136.046 28.6514C135.475 27.9435 135.189 27.1042 135.189 26.1324C135.189 25.0418 135.561 24.1328 136.303 23.405C137.045 22.6772 137.958 22.3354 139.041 22.3788ZM139.106 22.7255C138.435 22.7255 137.924 23.0688 137.574 23.7547C137.288 24.3184 137.146 25.1273 137.146 26.1814C137.146 27.4345 137.366 28.3606 137.807 28.9601C138.114 29.3792 138.544 29.5886 139.095 29.5886C139.468 29.5886 139.778 29.4981 140.028 29.3174C140.345 29.0863 140.593 28.717 140.77 28.21C140.947 27.7028 141.035 27.0409 141.035 26.225C141.035 25.2536 140.944 24.527 140.764 24.0449C140.583 23.5628 140.353 23.2225 140.074 23.0243C139.794 22.8248 139.471 22.7255 139.106 22.7255Z" fill="black"/>
<path d="M149.05 26.4792V28.5372C149.05 28.9343 149.075 29.1844 149.124 29.2878C149.172 29.3909 149.258 29.4729 149.381 29.5344C149.504 29.5956 149.733 29.6263 150.069 29.6263V29.8269H146.31V29.6263C146.649 29.6263 146.879 29.595 147 29.5317C147.121 29.4685 147.206 29.3862 147.255 29.2851C147.304 29.1838 147.328 28.9349 147.328 28.5374V23.7711C147.328 23.3739 147.304 23.1238 147.255 23.0204C147.206 22.9174 147.12 22.8353 146.998 22.7738C146.875 22.7126 146.645 22.6822 146.31 22.6822V22.4816H149.722C150.61 22.4816 151.26 22.5428 151.672 22.6658C152.084 22.7885 152.42 23.0152 152.679 23.3455C152.939 23.6759 153.069 24.0633 153.069 24.5073C153.069 25.0494 152.874 25.4969 152.484 25.8507C152.235 26.075 151.887 26.2426 151.439 26.3547L153.205 28.8406C153.436 29.1624 153.6 29.3625 153.698 29.4421C153.846 29.554 154.017 29.6155 154.213 29.626V29.8266H151.9L149.533 26.4792H149.05V26.4792ZM149.05 22.8772V26.0944H149.359C149.861 26.0944 150.237 26.0484 150.486 25.9561C150.736 25.8639 150.932 25.6981 151.074 25.4577C151.217 25.2175 151.288 24.9042 151.288 24.5179C151.288 23.9582 151.157 23.5447 150.895 23.2776C150.633 23.0102 150.211 22.8769 149.63 22.8769L149.05 22.8772Z" fill="black"/>
<path d="M163.831 22.4819V24.4699H163.636C163.52 24.0113 163.392 23.6818 163.252 23.4815C163.112 23.2811 162.918 23.1215 162.672 23.002C162.535 22.9367 162.295 22.9045 161.951 22.9045H161.405V28.5703C161.405 28.946 161.425 29.1806 161.467 29.2743C161.509 29.3681 161.59 29.4504 161.711 29.5209C161.832 29.5912 161.997 29.6264 162.206 29.6264H162.45V29.827H158.604V29.6264H158.847C159.061 29.6264 159.232 29.5886 159.362 29.5124C159.456 29.4621 159.53 29.3754 159.584 29.2524C159.624 29.1657 159.644 28.9381 159.644 28.5697V22.9042H159.113C158.618 22.9042 158.259 23.0088 158.035 23.2185C157.721 23.5107 157.522 23.9281 157.439 24.4693H157.233V22.4813L163.831 22.4819Z" fill="black"/>
<path d="M172.161 22.3138L172.221 24.7621H171.999C171.894 24.1483 171.637 23.6542 171.227 23.2805C170.817 22.9068 170.374 22.7197 169.897 22.7197C169.528 22.7197 169.236 22.8181 169.022 23.0149C168.807 23.2117 168.699 23.4384 168.699 23.6946C168.699 23.8572 168.738 24.0016 168.814 24.1278C168.918 24.2976 169.086 24.4655 169.317 24.6315C169.487 24.7507 169.879 24.9619 170.493 25.2653C171.353 25.6879 171.932 26.0871 172.232 26.4622C172.528 26.838 172.676 27.2676 172.676 27.7514C172.676 28.3653 172.437 28.8933 171.958 29.3358C171.48 29.7783 170.872 29.9994 170.136 29.9994C169.905 29.9994 169.686 29.976 169.48 29.9292C169.275 29.8823 169.016 29.7939 168.706 29.6641C168.532 29.5918 168.39 29.5558 168.278 29.5558C168.184 29.5558 168.085 29.5921 167.979 29.6641C167.875 29.7365 167.79 29.8463 167.725 29.9945H167.524V27.2207H167.725C167.884 28.0009 168.19 28.5957 168.643 29.0058C169.097 29.4155 169.585 29.6208 170.109 29.6208C170.513 29.6208 170.835 29.5107 171.075 29.2904C171.316 29.0702 171.436 28.8139 171.436 28.5214C171.436 28.348 171.39 28.1802 171.297 28.0176C171.205 27.8548 171.065 27.7007 170.877 27.5543C170.689 27.4079 170.357 27.2178 169.881 26.9829C169.212 26.6543 168.732 26.3744 168.44 26.1433C168.147 25.9122 167.922 25.6539 167.765 25.3687C167.608 25.0831 167.529 24.7692 167.529 24.4259C167.529 23.8411 167.744 23.3429 168.174 22.9311C168.604 22.5194 169.145 22.3135 169.799 22.3135C170.037 22.3135 170.269 22.3428 170.492 22.4002C170.662 22.4435 170.869 22.524 171.112 22.6412C171.356 22.7586 171.527 22.8175 171.624 22.8175C171.718 22.8175 171.792 22.7882 171.846 22.7308C171.901 22.6731 171.951 22.5337 171.998 22.3135L172.161 22.3138Z" fill="black"/>
</g>
<defs>
<clipPath id="clip0_22_71">
<rect width="172.925" height="30" fill="white" transform="translate(0.155273)"/>
</clipPath>
</defs>
</svg>
