<svg width="188" height="46" viewBox="0 0 188 46" fill="none" xmlns="http://www.w3.org/2000/svg">
<g clip-path="url(#clip0_22_225)">
<path d="M5.95007 0.596647C9.20391 0.00734928 12.633 2.20198 13.4738 5.39231C13.7424 6.33187 13.8028 7.31869 13.651 8.28401C13.4991 9.24933 13.1386 10.1699 12.5945 10.9816C12.0504 11.7934 11.3359 12.4767 10.5007 12.984C9.6655 13.4913 8.72973 13.8103 7.75859 13.9189C6.78746 14.0276 5.80432 13.9231 4.87768 13.6128C3.95105 13.3026 3.10322 12.794 2.39327 12.1225C1.68331 11.4511 1.12832 10.6329 0.766959 9.72495C0.405599 8.81703 0.246566 7.84123 0.300941 6.86556C0.402544 3.78698 2.90452 1.02592 5.95007 0.596647Z" fill="black"/>
<path d="M21.6953 0.599148C22.786 0.423069 23.9033 0.518398 24.9485 0.876709C25.9936 1.23502 26.9344 1.84528 27.6877 2.65355C28.441 3.46182 28.9836 4.4432 29.2675 5.51097C29.5514 6.57874 29.5679 7.7 29.3155 8.77566C28.6525 11.8771 25.5511 14.1936 22.3811 13.9447C19.079 13.8279 16.1935 10.9474 16.0665 7.6504C15.7769 4.3102 18.3805 1.06906 21.6953 0.599148Z" fill="black"/>
<path d="M37.0066 0.690505C38.4443 0.35194 39.9534 0.496194 41.3009 1.10098C42.6484 1.70577 43.7593 2.73744 44.4619 4.03661C45.1645 5.33579 45.4198 6.83018 45.1883 8.28892C44.9568 9.74766 44.2514 11.0896 43.181 12.1074C42.1107 13.1252 40.735 13.7622 39.2665 13.9201C37.798 14.078 36.3183 13.7479 35.0561 12.9809C33.7939 12.2138 32.8194 11.0525 32.2831 9.67632C31.7468 8.30012 31.6786 6.78562 32.089 5.36679C32.4232 4.22275 33.0542 3.18752 33.9179 2.36621C34.7816 1.5449 35.8472 0.966764 37.0066 0.690505V0.690505Z" fill="black"/>
<path d="M126.62 13.3046H130.517C129.341 14.7473 128.127 16.1545 126.961 17.6227C125.897 17.6583 124.832 17.6456 123.771 17.6405C124.724 16.1926 125.674 14.7473 126.62 13.3046V13.3046Z" fill="black"/>
<path d="M153.042 13.3121C154.495 12.5628 156.388 13.8913 156.174 15.5093C156.123 17.1781 153.944 18.1535 152.654 17.107C151.312 16.2053 151.541 13.9192 153.042 13.3121Z" fill="black"/>
<path d="M111.03 14.7245C112.638 13.2156 115.01 13.9116 116.989 13.7491C116.989 14.8464 116.989 15.9471 116.989 17.0512C116.12 17.0512 115.241 16.9724 114.38 17.1121C113.364 17.5338 113.814 18.8622 113.722 19.7132H116.999C116.999 20.9104 116.999 22.1051 116.999 23.2972H113.73V34.9155H109.981C109.981 31.0428 109.981 27.17 109.981 23.2972H107.458C107.458 22.1 107.458 20.9036 107.458 19.7081H109.978C110.014 18.0266 109.673 16.0072 111.03 14.7245V14.7245Z" fill="black"/>
<path d="M53.2886 14.0564H69.6898C69.6898 15.2993 69.6898 16.5431 69.6898 17.7878C67.607 17.7878 65.5233 17.7878 63.4387 17.7878C63.4387 23.4962 63.4387 29.2054 63.4387 34.9155H59.5499C59.5397 29.2054 59.5397 23.4962 59.5499 17.7878C57.4619 17.7776 55.3748 17.7725 53.2886 17.7725C53.2886 16.5406 53.2911 15.2985 53.2886 14.0564V14.0564Z" fill="black"/>
<path d="M85.4204 14.0514H89.1696V34.9105H85.4204C85.4204 27.9558 85.4204 21.0027 85.4204 14.0514V14.0514Z" fill="black"/>
<path d="M21.2355 16.4594C22.7775 16.0966 24.398 16.2897 25.8115 17.0046C27.2251 17.7195 28.3409 18.9104 28.9625 20.3674C29.5841 21.8243 29.6716 23.454 29.2094 24.9691C28.7473 26.4842 27.7652 27.7876 26.4363 28.6497C25.1074 29.5117 23.5168 29.8771 21.9449 29.6814C20.373 29.4856 18.9206 28.7414 17.8436 27.5798C16.7666 26.4182 16.1342 24.9138 16.0577 23.3316C15.9812 21.7494 16.4655 20.191 17.4254 18.9309C18.3718 17.6917 19.7181 16.8184 21.2355 16.4594V16.4594Z" fill="black"/>
<path d="M123.882 19.5151C126.169 19.1367 128.686 19.6904 130.456 21.2525C133.829 24.1914 133.921 30.0514 130.697 33.1325C127.86 35.8656 122.897 35.9012 120.001 33.2417C116.717 30.2419 116.699 24.4175 119.966 21.3999C121.056 20.3975 122.419 19.7415 123.882 19.5151V19.5151ZM124.114 23.0204C120.812 24.0365 120.319 29.0379 122.976 31.0039C123.715 31.5456 124.622 31.8106 125.536 31.7526C126.451 31.6946 127.317 31.3172 127.982 30.6864C129.587 29.0988 129.722 26.3378 128.477 24.4988C128 23.8225 127.32 23.3151 126.536 23.0495C125.752 22.7839 124.904 22.7737 124.114 23.0204V23.0204Z" fill="black"/>
<path d="M139.001 21.2524C141.404 18.5117 146.347 18.8673 148.242 22.0145C148.948 23.1854 149.306 24.5336 149.273 25.9008V34.9054H145.529V26.1751C145.559 25.3591 145.293 24.5597 144.779 23.9246C143.474 22.3802 140.675 22.4818 139.547 24.1786C139.087 24.8263 138.986 25.6417 138.998 26.419C138.998 29.2435 138.998 32.0689 138.998 34.8952H135.259C135.259 29.8252 135.259 24.7544 135.259 19.6827H138.696L139.001 21.2524Z" fill="black"/>
<path d="M163.299 19.7742C165.598 19.0833 168.288 19.3043 170.241 20.7902C171.674 21.8621 172.553 23.5157 172.987 25.2252C171.746 25.2252 170.505 25.2252 169.263 25.2252C168.908 24.5648 168.539 23.8586 167.887 23.4471C166.294 22.3625 163.911 22.7791 162.756 24.3158C162.12 25.1903 161.781 26.2445 161.786 27.3253C161.791 28.4061 162.14 29.4572 162.784 30.3257C163.972 31.8726 166.436 32.2587 168.006 31.0877C168.626 30.6355 168.946 29.9167 169.261 29.2436H172.982C172.53 31.2325 171.435 33.168 169.639 34.2272C166.368 36.1247 161.674 35.2433 159.497 32.0961C157.909 29.843 157.658 26.7975 158.59 24.2346C158.981 23.1798 159.608 22.229 160.425 21.4556C161.241 20.6822 162.225 20.1069 163.299 19.7742V19.7742Z" fill="black"/>
<path d="M177.862 20.1069C180.074 19.0909 182.81 19.1264 184.926 20.3609C185.753 20.8581 186.438 21.5611 186.913 22.4016C187.388 23.242 187.637 24.1912 187.636 25.1566C187.654 28.4079 187.636 31.6566 187.636 34.9079H184.496C184.39 34.3999 184.285 33.8716 184.189 33.3534C182.101 35.5963 178.309 35.8122 175.888 34.0037C174.006 32.6092 173.736 29.7465 174.971 27.8414C175.822 26.5231 177.366 25.8348 178.878 25.6214C180.552 25.4004 182.248 25.5579 183.935 25.5071C183.889 24.6232 183.749 23.6402 183.031 23.0331C181.606 21.763 178.982 22.4311 178.497 24.3361H174.78C175.073 22.5428 176.183 20.8766 177.862 20.112V20.1069ZM178.316 29.1877C177.582 30.097 177.999 31.6668 179.142 32.0148C180.628 32.505 182.563 32.1215 183.422 30.727C183.871 30.0259 183.887 29.1699 183.93 28.3672C182.754 28.3672 181.578 28.3317 180.407 28.3672C179.65 28.4104 178.819 28.5755 178.316 29.1826V29.1877Z" fill="black"/>
<path d="M70.188 21.6334C72.845 18.8901 77.6457 18.6234 80.5515 21.1254C82.6827 22.873 83.5717 25.822 83.0789 28.4916C79.2866 28.4916 75.4943 28.4739 71.7019 28.5069C71.9712 29.5839 72.4639 30.6761 73.4063 31.3213C75.1031 32.571 77.7651 32.2002 78.9513 30.417H82.802C82.4451 31.4106 81.8729 32.313 81.1264 33.0595C80.3799 33.806 79.4775 34.3782 78.4839 34.7351C75.8524 35.6369 72.7027 35.1974 70.5818 33.3356C67.272 30.4729 67.1298 24.7577 70.188 21.6334V21.6334ZM72.944 23.6655C72.3039 24.2853 71.989 25.1337 71.7172 25.9516H79.5C79.2764 25.1591 79.03 24.3335 78.4534 23.7188C77.0894 22.1287 74.3715 22.1872 72.944 23.6579V23.6655Z" fill="black"/>
<path d="M93.3101 21.9002C95.9061 18.9181 100.93 18.5397 103.923 21.1229C106.054 22.873 106.943 25.8221 106.463 28.4891C102.67 28.4891 98.878 28.4739 95.0856 28.5044C95.3396 29.5204 95.7765 30.5517 96.6402 31.2045C98.3217 32.5837 101.118 32.2535 102.338 30.412H106.183C105.841 31.3725 105.298 32.249 104.59 32.9827C103.883 33.7164 103.026 34.2905 102.078 34.6666C99.4063 35.6674 96.1575 35.2483 93.9832 33.3458C90.7523 30.539 90.5211 25.0651 93.3228 21.8849L93.3101 21.9002ZM96.0915 23.917C95.5835 24.4961 95.3472 25.2378 95.1034 25.9491C97.6943 25.9491 100.287 25.9491 102.881 25.9491C102.658 25.1566 102.414 24.3336 101.84 23.7163C100.382 22.0348 97.4301 22.2024 96.0788 23.9195L96.0915 23.917Z" fill="black"/>
<path d="M152.1 19.703H155.844V34.9105H152.1C152.097 29.8405 152.097 24.7713 152.1 19.703Z" fill="black"/>
<path d="M21.4998 32.1722C25.2235 31.3366 29.1886 34.283 29.4604 38.0932C29.943 41.7534 26.8847 45.3654 23.194 45.4822C19.6938 45.7972 16.3358 42.9168 16.0818 39.414C15.6855 36.0611 18.1926 32.7387 21.4998 32.1722V32.1722Z" fill="black"/>
</g>
<defs>
<clipPath id="clip0_22_225">
<rect width="187.361" height="45" fill="white" transform="translate(0.282227 0.5)"/>
</clipPath>
</defs>
</svg>
