<svg width="51" height="50" viewBox="0 0 51 50" fill="none" xmlns="http://www.w3.org/2000/svg">
<g clip-path="url(#clip0_22_202)">
<path d="M25.5635 47.0542C13.5093 47.0542 3.59889 37.0542 3.59889 25C3.59889 22.5 4.04473 20.0896 4.84889 17.7687L17.7072 42.7687C17.8843 43.125 18.0635 43.3937 18.5093 43.3937C18.9572 43.3937 19.1343 43.125 19.3135 42.7687L25.2947 29.4646C25.3843 29.2854 25.4739 29.1958 25.5635 29.1958C25.7426 29.1958 25.7426 29.375 25.8322 29.4646L31.9031 42.7687C32.0822 43.125 32.2593 43.3937 32.7072 43.3937C33.1531 43.3937 33.3322 43.125 33.5093 42.7687L46.3676 17.7687C47.1697 20 47.6176 22.4104 47.6176 25C47.5281 37.0542 37.6176 47.0542 25.5635 47.0542V47.0542ZM25.5635 19.2854C25.3843 19.2854 25.3843 19.1062 25.2947 19.0187L18.4197 4.19583C23.037 2.53243 28.09 2.53243 32.7072 4.19583L25.8322 19.0187C25.7426 19.1062 25.7426 19.2854 25.5635 19.2854V19.2854ZM18.3322 35.3563C18.1531 35.3563 18.1531 35.1792 18.0635 35.0896L6.81348 13.4792C8.77806 10.2667 11.6343 7.5875 14.9385 5.7125L22.8843 22.8542C23.0635 23.2125 23.2426 23.3021 23.5093 23.3021H27.6176C27.8843 23.3021 28.0635 23.2125 28.2426 22.8542L36.0989 5.7125C39.4031 7.5875 42.2593 10.2667 44.2239 13.4792L33.0635 35.0896C32.9739 35.2687 32.8843 35.3563 32.7947 35.3563C32.6176 35.3563 32.6176 35.1792 32.5281 35.0896L28.2426 25.625C28.0635 25.2687 27.8843 25.1792 27.6176 25.1792H23.5093C23.2426 25.1792 23.0635 25.2687 22.8843 25.625L18.5989 35.0896C18.5093 35.1792 18.5093 35.3563 18.3322 35.3563V35.3563ZM25.5635 50C39.4031 50 50.5635 38.8396 50.5635 25C50.5635 11.1604 39.4031 0 25.5635 0C11.7239 0 0.563477 11.1604 0.563477 25C0.563477 38.8396 11.7239 50 25.5635 50Z" fill="black"/>
</g>
<defs>
<clipPath id="clip0_22_202">
<rect width="50" height="50" fill="white" transform="translate(0.563477)"/>
</clipPath>
</defs>
</svg>
